<?xml version="1.0" encoding="utf-8"?>
<!-- Generator: Adobe Illustrator 26.0.3, SVG Export Plug-In . SVG Version: 6.00 Build 0)  -->
<svg version="1.1" id="Layer_1" xmlns="http://www.w3.org/2000/svg" xmlns:xlink="http://www.w3.org/1999/xlink" x="0px" y="0px"
	 viewBox="0 0 262.55 54" style="enable-background:new 0 0 262.55 54;" xml:space="preserve">
<style type="text/css">
	.st0{fill:#F0BF5F;}
	.st1{fill:#FFFFFF;}
	.st2{clip-path:url(#SVGID_00000067934949767912573970000010155415649312341144_);}
	.st3{fill:#A47312;}
	.st4{fill-rule:evenodd;clip-rule:evenodd;fill:#A47312;}
</style>
<path class="st0" d="M15,0h231c8.28,0,15,6.72,15,15v24c0,8.28-6.72,15-15,15H15C6.72,54,0,47.28,0,39V15C0,6.72,6.72,0,15,0z"/>
<path class="st1" d="M30.95,29.68c0,0.73,0.06,1.26,0.17,1.6c0.11,0.31,0.32,0.52,0.63,0.63c0.34,0.11,0.87,0.17,1.6,0.17h1.43
	c2.18,0,4.07-0.57,5.67-1.72c1.6-1.18,2.66-2.76,3.19-4.75c0-0.06,0.06-0.08,0.17-0.08c0.06,0,0.11,0.03,0.17,0.08
	c0.08,0.03,0.13,0.06,0.13,0.08c-0.25,2.77-0.38,5.08-0.38,6.93c0,0.22-0.06,0.39-0.17,0.5c-0.08,0.08-0.24,0.13-0.46,0.13H23.26
	c-0.06,0-0.08-0.08-0.08-0.25s0.03-0.25,0.08-0.25c0.9,0,1.54-0.07,1.93-0.21c0.42-0.14,0.7-0.41,0.84-0.8
	c0.17-0.42,0.25-1.05,0.25-1.89V10.4c0-0.84-0.08-1.46-0.25-1.85c-0.14-0.39-0.42-0.66-0.84-0.8c-0.42-0.17-1.06-0.25-1.93-0.25
	c-0.06,0-0.08-0.08-0.08-0.25C23.18,7.08,23.2,7,23.26,7l2.14,0.04c1.29,0.06,2.35,0.08,3.19,0.08s1.9-0.03,3.19-0.08L33.93,7
	c0.08,0,0.13,0.08,0.13,0.25c0,0.17-0.04,0.25-0.13,0.25c-0.87,0-1.51,0.08-1.93,0.25c-0.42,0.14-0.7,0.42-0.84,0.84
	c-0.14,0.39-0.21,1.01-0.21,1.85V29.68z"/>
<path class="st1" d="M62.48,30.98c0.11,0,0.18,0.07,0.21,0.21c0.06,0.11,0.03,0.2-0.08,0.25l-4.33,2.06
	c-0.11,0.06-0.25,0.08-0.42,0.08c-0.45,0-0.88-0.24-1.3-0.71c-0.39-0.48-0.67-1.12-0.84-1.93l-1.81,1.26
	c-0.64,0.48-1.25,0.83-1.81,1.05c-0.56,0.2-1.19,0.29-1.89,0.29c-1.2,0-2.11-0.27-2.73-0.8c-0.62-0.53-0.92-1.27-0.92-2.23
	c0-0.76,0.18-1.36,0.55-1.81c0.36-0.48,0.81-0.84,1.34-1.09c0.56-0.28,1.33-0.59,2.31-0.92l1.05-0.38l3.78-1.39v-2.39
	c0-1.79-0.15-3.09-0.46-3.91c-0.28-0.81-0.77-1.22-1.47-1.22c-1.48,0-2.32,1.15-2.52,3.44c-0.08,0.84-0.34,1.44-0.76,1.81
	c-0.39,0.36-0.95,0.55-1.68,0.55c-0.7,0-1.22-0.14-1.55-0.42c-0.31-0.31-0.46-0.7-0.46-1.18c0-0.84,0.49-1.64,1.47-2.39
	c0.98-0.78,2.16-1.41,3.53-1.89c1.4-0.48,2.63-0.71,3.7-0.71c1.23,0,2.23,0.39,2.98,1.18c0.78,0.76,1.18,1.92,1.18,3.49v7.43
	c0,0.81,0.14,1.44,0.42,1.89c0.31,0.45,0.73,0.67,1.26,0.67c0.39,0,0.8-0.1,1.22-0.29H62.48z M55.64,30.23
	c-0.03-0.11-0.04-0.29-0.04-0.55v-4.03l-1.81,0.84c-0.08,0.03-0.36,0.14-0.84,0.34c-0.48,0.17-0.9,0.46-1.26,0.88
	c-0.34,0.42-0.5,0.91-0.5,1.47c0,0.67,0.21,1.2,0.63,1.6c0.45,0.36,0.95,0.55,1.51,0.55c0.45,0,0.91-0.15,1.39-0.46L55.64,30.23z"/>
<path class="st1" d="M73.06,31.53c1.65,0.03,3,0.13,4.03,0.29c1.06,0.17,1.95,0.59,2.65,1.26c0.73,0.64,1.09,1.64,1.09,2.98
	c0,1.57-0.49,3.04-1.47,4.41c-0.95,1.4-2.25,2.52-3.91,3.36c-1.62,0.84-3.37,1.26-5.25,1.26c-1.93,0-3.51-0.45-4.75-1.34
	c-1.23-0.87-1.85-2.02-1.85-3.44c0-1.96,1.41-3.86,4.24-5.71c-2.02-0.39-3.02-1.4-3.02-3.02c0-1.74,0.98-3.26,2.94-4.58
	c-1.06-0.5-1.9-1.2-2.52-2.1c-0.59-0.92-0.88-1.89-0.88-2.9c0-1.12,0.36-2.07,1.09-2.86c0.73-0.78,1.65-1.37,2.77-1.76
	c1.15-0.42,2.31-0.63,3.49-0.63c1.76,0,3.28,0.45,4.54,1.34c1.46-0.98,2.97-1.47,4.54-1.47c0.22,0,0.34,0.39,0.34,1.18
	c0,0.42-0.06,0.87-0.17,1.34c-0.11,0.45-0.22,0.63-0.34,0.55c-1.15-0.48-2.18-0.71-3.11-0.71h-0.34c0.76,0.9,1.13,1.9,1.13,3.02
	c0,1.12-0.36,2.11-1.09,2.98c-0.73,0.87-1.67,1.54-2.81,2.02c-1.12,0.45-2.28,0.67-3.49,0.67c-0.87,0-1.67-0.13-2.39-0.38
	c-0.45,0.48-0.67,1.08-0.67,1.81c0,0.76,0.2,1.3,0.59,1.64c0.42,0.34,0.97,0.55,1.64,0.63C70.75,31.44,71.75,31.5,73.06,31.53z
	 M70.33,17.54c-1.26,0-1.89,1.06-1.89,3.19c0,1.18,0.17,2.24,0.5,3.19c0.34,0.92,0.77,1.65,1.3,2.18c0.56,0.53,1.15,0.8,1.76,0.8
	c0.62,0,1.13-0.31,1.55-0.92c0.42-0.62,0.63-1.55,0.63-2.81c0-1.2-0.2-2.23-0.59-3.07c-0.39-0.87-0.9-1.51-1.51-1.93
	C71.51,17.75,70.92,17.54,70.33,17.54z M72.73,43.75c1.43,0,2.56-0.45,3.4-1.34c0.84-0.9,1.26-2.11,1.26-3.65
	c0-1.2-0.27-2.09-0.8-2.65c-0.5-0.53-1.18-0.87-2.02-1.01c-0.81-0.11-2-0.18-3.57-0.21c-0.25,0-0.6-0.01-1.05-0.04
	c-0.45-0.03-0.83-0.06-1.13-0.08c-0.95,0.7-1.43,1.82-1.43,3.36c0,1.79,0.52,3.18,1.55,4.16C70.01,43.26,71.27,43.75,72.73,43.75z"
	/>
<path class="st1" d="M90.98,33.8c-1.74,0-3.26-0.39-4.58-1.18c-1.29-0.81-2.28-1.89-2.98-3.23c-0.7-1.37-1.05-2.86-1.05-4.45
	c0-1.82,0.46-3.36,1.39-4.62c0.92-1.29,2.1-2.24,3.53-2.86c1.43-0.64,2.9-0.97,4.41-0.97c1.74,0,3.25,0.41,4.54,1.22
	c1.29,0.81,2.27,1.89,2.94,3.23c0.7,1.32,1.05,2.73,1.05,4.24c0,1.68-0.42,3.18-1.26,4.49c-0.84,1.29-1.97,2.3-3.4,3.02
	C94.15,33.43,92.63,33.8,90.98,33.8z M92.24,32.91c1.09,0,1.92-0.53,2.48-1.6c0.59-1.09,0.88-2.65,0.88-4.66
	c0-1.96-0.25-3.64-0.76-5.04c-0.5-1.4-1.16-2.45-1.97-3.15c-0.81-0.73-1.68-1.09-2.6-1.09c-2.24,0-3.36,2-3.36,6.01
	c0,1.88,0.24,3.54,0.71,5c0.48,1.43,1.12,2.55,1.93,3.36C90.36,32.52,91.26,32.91,92.24,32.91z"/>
<path class="st1" d="M111.52,33.8c-1.74,0-3.26-0.39-4.58-1.18c-1.29-0.81-2.28-1.89-2.98-3.23c-0.7-1.37-1.05-2.86-1.05-4.45
	c0-1.82,0.46-3.36,1.39-4.62c0.92-1.29,2.1-2.24,3.53-2.86c1.43-0.64,2.9-0.97,4.41-0.97c1.74,0,3.25,0.41,4.54,1.22
	c1.29,0.81,2.27,1.89,2.94,3.23c0.7,1.32,1.05,2.73,1.05,4.24c0,1.68-0.42,3.18-1.26,4.49c-0.84,1.29-1.97,2.3-3.4,3.02
	C114.7,33.43,113.18,33.8,111.52,33.8z M112.78,32.91c1.09,0,1.92-0.53,2.48-1.6c0.59-1.09,0.88-2.65,0.88-4.66
	c0-1.96-0.25-3.64-0.76-5.04c-0.5-1.4-1.16-2.45-1.97-3.15c-0.81-0.73-1.68-1.09-2.6-1.09c-2.24,0-3.36,2-3.36,6.01
	c0,1.88,0.24,3.54,0.71,5c0.48,1.43,1.12,2.55,1.93,3.36C110.91,32.52,111.8,32.91,112.78,32.91z"/>
<path class="st1" d="M143.5,32.75c0.08,0,0.13,0.08,0.13,0.25s-0.04,0.25-0.13,0.25c-0.73,0-1.3-0.01-1.72-0.04l-2.52-0.04
	l-2.44,0.04c-0.45,0.03-1.04,0.04-1.76,0.04c-0.08,0-0.13-0.08-0.13-0.25s0.04-0.25,0.13-0.25c0.87,0,1.46-0.2,1.76-0.59
	c0.31-0.42,0.46-1.19,0.46-2.31V23.8c0-1.51-0.28-2.63-0.84-3.36c-0.53-0.73-1.39-1.09-2.56-1.09c-0.67,0-1.37,0.14-2.1,0.42
	c-0.7,0.28-1.32,0.66-1.85,1.13v8.95c0,1.12,0.15,1.89,0.46,2.31c0.34,0.39,0.94,0.59,1.81,0.59c0.08,0,0.13,0.08,0.13,0.25
	s-0.04,0.25-0.13,0.25c-0.73,0-1.3-0.01-1.72-0.04l-2.52-0.04l-2.48,0.04c-0.42,0.03-0.99,0.04-1.72,0.04
	c-0.08,0-0.13-0.08-0.13-0.25s0.04-0.25,0.13-0.25c0.87,0,1.46-0.2,1.76-0.59c0.31-0.42,0.46-1.19,0.46-2.31v-7.9
	c0-0.87-0.11-1.5-0.34-1.89c-0.2-0.42-0.52-0.63-0.97-0.63c-0.48,0-1.15,0.2-2.02,0.59h-0.08c-0.08,0-0.15-0.07-0.21-0.21
	c-0.03-0.14-0.01-0.22,0.04-0.25l5.84-2.86c0.17-0.06,0.27-0.08,0.29-0.08c0.31,0,0.6,0.31,0.88,0.92c0.28,0.59,0.45,1.4,0.5,2.44
	c1.93-2.3,4.06-3.44,6.38-3.44c1.51,0,2.7,0.49,3.57,1.47c0.9,0.95,1.34,2.21,1.34,3.78v8.06c0,1.12,0.15,1.89,0.46,2.31
	C142.03,32.55,142.63,32.75,143.5,32.75z"/>
<path class="st1" d="M161.82,30.98c0.11,0,0.18,0.07,0.21,0.21c0.06,0.11,0.03,0.2-0.08,0.25l-4.33,2.06
	c-0.11,0.06-0.25,0.08-0.42,0.08c-0.45,0-0.88-0.24-1.3-0.71c-0.39-0.48-0.67-1.12-0.84-1.93l-1.81,1.26
	c-0.64,0.48-1.25,0.83-1.81,1.05c-0.56,0.2-1.19,0.29-1.89,0.29c-1.2,0-2.11-0.27-2.73-0.8c-0.62-0.53-0.92-1.27-0.92-2.23
	c0-0.76,0.18-1.36,0.55-1.81c0.36-0.48,0.81-0.84,1.34-1.09c0.56-0.28,1.33-0.59,2.31-0.92l1.05-0.38l3.78-1.39v-2.39
	c0-1.79-0.15-3.09-0.46-3.91c-0.28-0.81-0.77-1.22-1.47-1.22c-1.48,0-2.32,1.15-2.52,3.44c-0.08,0.84-0.34,1.44-0.76,1.81
	c-0.39,0.36-0.95,0.55-1.68,0.55c-0.7,0-1.22-0.14-1.55-0.42c-0.31-0.31-0.46-0.7-0.46-1.18c0-0.84,0.49-1.64,1.47-2.39
	c0.98-0.78,2.16-1.41,3.53-1.89c1.4-0.48,2.63-0.71,3.7-0.71c1.23,0,2.23,0.39,2.98,1.18c0.78,0.76,1.18,1.92,1.18,3.49v7.43
	c0,0.81,0.14,1.44,0.42,1.89c0.31,0.45,0.73,0.67,1.26,0.67c0.39,0,0.8-0.1,1.22-0.29H161.82z M154.98,30.23
	c-0.03-0.11-0.04-0.29-0.04-0.55v-4.03l-1.81,0.84c-0.08,0.03-0.36,0.14-0.84,0.34c-0.48,0.17-0.9,0.46-1.26,0.88
	c-0.34,0.42-0.5,0.91-0.5,1.47c0,0.67,0.21,1.2,0.63,1.6c0.45,0.36,0.95,0.55,1.51,0.55c0.45,0,0.91-0.15,1.39-0.46L154.98,30.23z"
	/>
<path class="st1" d="M93.51,46.43c-0.66,0-1.22-0.14-1.68-0.42c-0.45-0.29-0.79-0.66-1.02-1.11c-0.22-0.46-0.33-0.94-0.33-1.44
	c0-0.63,0.17-1.18,0.52-1.65c0.35-0.48,0.8-0.85,1.33-1.1c0.55-0.26,1.11-0.39,1.68-0.39c0.48,0,0.91,0.1,1.29,0.3
	c0.39,0.2,0.58,0.47,0.58,0.83c0,0.19-0.07,0.35-0.22,0.49c-0.14,0.13-0.34,0.19-0.6,0.19c-0.24,0-0.43-0.06-0.57-0.18
	c-0.14-0.13-0.25-0.33-0.35-0.58c-0.09-0.28-0.18-0.47-0.27-0.57c-0.08-0.11-0.23-0.17-0.45-0.17c-0.43,0-0.77,0.22-1.03,0.65
	c-0.25,0.42-0.38,0.98-0.38,1.68c0,0.83,0.18,1.49,0.56,1.99c0.37,0.49,0.96,0.74,1.77,0.74c0.27,0,0.5-0.03,0.69-0.09
	c0.2-0.06,0.45-0.16,0.75-0.3h0.01c0.03,0,0.06,0.01,0.07,0.04c0.03,0.03,0.04,0.06,0.01,0.08c-0.37,0.34-0.74,0.6-1.11,0.76
	C94.42,46.35,93.99,46.43,93.51,46.43z"/>
<path class="st1" d="M102.1,45.26c0.02,0,0.04,0.02,0.06,0.06c0.03,0.04,0.03,0.07,0.01,0.09c-0.37,0.36-0.75,0.62-1.12,0.78
	s-0.79,0.24-1.24,0.24c-0.63,0-1.17-0.13-1.63-0.39c-0.46-0.27-0.81-0.62-1.05-1.07c-0.24-0.45-0.36-0.93-0.36-1.45
	c0-0.58,0.15-1.12,0.44-1.6c0.29-0.49,0.69-0.88,1.2-1.16c0.52-0.29,1.11-0.43,1.75-0.43c0.62,0,1.1,0.14,1.44,0.42
	c0.34,0.28,0.51,0.72,0.51,1.31c0,0.31-0.05,0.47-0.16,0.47l-3.64,0.01c-0.01,0.07-0.01,0.19-0.01,0.35c0,0.88,0.2,1.57,0.6,2.07
	c0.41,0.5,0.99,0.75,1.75,0.75c0.27,0,0.5-0.03,0.69-0.09c0.19-0.06,0.44-0.17,0.75-0.33L102.1,45.26z M99.58,40.62
	c-0.33,0-0.6,0.15-0.82,0.44c-0.22,0.28-0.36,0.67-0.43,1.17l2.17-0.03c-0.01-0.51-0.08-0.9-0.22-1.17S99.9,40.62,99.58,40.62z"/>
<path class="st1" d="M104.2,46.25c-0.03,0-0.05-0.03-0.05-0.09s0.02-0.09,0.05-0.09c0.24,0,0.42-0.03,0.52-0.08
	c0.12-0.05,0.2-0.15,0.24-0.28c0.04-0.15,0.06-0.38,0.06-0.67v-3.33c0-0.35-0.03-0.59-0.09-0.72c-0.05-0.13-0.16-0.19-0.32-0.19
	c-0.29,0-0.57,0.15-0.86,0.47c-0.27,0.31-0.46,0.69-0.58,1.15c-0.01,0.02-0.04,0.03-0.1,0.03c-0.05,0-0.08-0.01-0.08-0.03
	l-0.03-0.97c-0.02-0.4-0.03-0.69-0.03-0.85c0-0.06,0-0.1,0.01-0.11c0.01-0.02,0.04-0.03,0.11-0.03c0.21,0,0.39,0.01,0.56,0.01
	l2.07,0.01l2.11-0.01c0.17-0.01,0.36-0.01,0.58-0.01c0.07,0,0.11,0.01,0.12,0.03c0.01,0.01,0.01,0.05,0.01,0.11
	c-0.05,1-0.08,1.61-0.08,1.83c0,0.02-0.03,0.03-0.09,0.03c-0.05,0-0.08-0.01-0.09-0.03c-0.12-0.46-0.32-0.85-0.6-1.15
	c-0.27-0.31-0.55-0.47-0.84-0.47c-0.16,0-0.27,0.06-0.33,0.19c-0.05,0.13-0.07,0.37-0.07,0.72v3.33c0,0.3,0.02,0.53,0.06,0.67
	c0.04,0.14,0.11,0.24,0.22,0.28c0.12,0.05,0.29,0.08,0.53,0.08c0.03,0,0.04,0.03,0.04,0.09s-0.01,0.09-0.04,0.09
	c-0.28,0-0.5-0.01-0.65-0.01l-0.84-0.01l-0.87,0.01C104.72,46.24,104.49,46.25,104.2,46.25z"/>
<path class="st1" d="M112.81,42.81c1.54,0,2.31,0.52,2.31,1.56c0,0.57-0.22,1.03-0.66,1.38c-0.43,0.35-0.99,0.52-1.69,0.52
	l-0.81-0.03c-0.48-0.02-0.82-0.03-1.04-0.03l-0.87,0.01c-0.16,0.01-0.39,0.01-0.68,0.01c-0.03,0-0.04-0.03-0.04-0.09
	s0.01-0.09,0.04-0.09c0.24,0,0.42-0.03,0.53-0.08c0.12-0.05,0.2-0.15,0.24-0.28c0.04-0.15,0.06-0.38,0.06-0.67v-3.36
	c0-0.3-0.02-0.52-0.06-0.66c-0.04-0.15-0.12-0.25-0.24-0.3c-0.11-0.05-0.28-0.08-0.51-0.08c-0.03,0-0.04-0.03-0.04-0.09
	c0-0.06,0.01-0.09,0.04-0.09c0.28,0,0.5,0.01,0.65,0.01l0.88,0.02l0.93-0.02c0.18-0.01,0.43-0.01,0.74-0.01
	c0.02,0,0.03,0.03,0.03,0.09c0,0.06-0.01,0.09-0.03,0.09c-0.29,0-0.5,0.03-0.64,0.09c-0.13,0.06-0.22,0.17-0.27,0.31
	c-0.05,0.14-0.07,0.36-0.07,0.66v1.24C111.97,42.86,112.37,42.81,112.81,42.81z M112.45,46.06c0.4,0,0.69-0.1,0.88-0.31
	c0.19-0.22,0.29-0.57,0.29-1.03c0-1.04-0.45-1.56-1.35-1.56c-0.21,0-0.44,0.03-0.68,0.09v1.8c0,0.36,0.06,0.62,0.18,0.78
	S112.12,46.06,112.45,46.06z"/>
<path class="st1" d="M122.49,46.44c-0.62,0-1.17-0.14-1.64-0.42c-0.46-0.29-0.81-0.68-1.06-1.16c-0.25-0.49-0.38-1.02-0.38-1.59
	c0-0.65,0.16-1.2,0.49-1.65c0.33-0.46,0.75-0.8,1.26-1.02c0.51-0.23,1.03-0.35,1.57-0.35c0.62,0,1.16,0.15,1.62,0.44
	s0.81,0.67,1.05,1.15c0.25,0.47,0.38,0.98,0.38,1.51c0,0.6-0.15,1.14-0.45,1.6c-0.3,0.46-0.71,0.82-1.21,1.08
	C123.62,46.31,123.08,46.44,122.49,46.44z M122.94,46.13c0.39,0,0.69-0.19,0.89-0.57c0.21-0.39,0.32-0.94,0.32-1.67
	c0-0.7-0.09-1.3-0.27-1.8s-0.42-0.88-0.7-1.12c-0.29-0.26-0.6-0.39-0.93-0.39c-0.8,0-1.2,0.71-1.2,2.14c0,0.67,0.08,1.27,0.26,1.78
	c0.17,0.51,0.4,0.91,0.69,1.2C122.27,45.99,122.59,46.13,122.94,46.13z"/>
<path class="st1" d="M127.92,46.25c-0.03,0-0.04-0.03-0.04-0.09s0.01-0.09,0.04-0.09c0.24,0,0.42-0.03,0.53-0.08
	c0.12-0.05,0.2-0.15,0.24-0.28c0.04-0.15,0.06-0.38,0.06-0.67v-3.33c0-0.35-0.03-0.59-0.09-0.72c-0.05-0.13-0.15-0.19-0.32-0.19
	c-0.29,0-0.57,0.15-0.85,0.47c-0.27,0.31-0.47,0.69-0.58,1.15c-0.01,0.02-0.04,0.03-0.11,0.03c-0.05,0-0.07-0.01-0.07-0.03
	l-0.03-0.97c-0.02-0.4-0.03-0.69-0.03-0.85c0-0.06,0-0.1,0.01-0.11c0.01-0.02,0.04-0.03,0.1-0.03c0.21,0,0.4,0.01,0.56,0.01
	l2.07,0.01l2.12-0.01c0.17-0.01,0.36-0.01,0.58-0.01c0.07,0,0.11,0.01,0.12,0.03c0.01,0.01,0.01,0.05,0.01,0.11
	c-0.05,1-0.08,1.61-0.08,1.83c0,0.02-0.03,0.03-0.09,0.03c-0.05,0-0.08-0.01-0.09-0.03c-0.12-0.46-0.32-0.85-0.6-1.15
	c-0.27-0.31-0.55-0.47-0.84-0.47c-0.16,0-0.27,0.06-0.33,0.19c-0.05,0.13-0.07,0.37-0.07,0.72v3.33c0,0.3,0.02,0.53,0.06,0.67
	c0.04,0.14,0.12,0.24,0.23,0.28c0.12,0.05,0.29,0.08,0.52,0.08c0.03,0,0.04,0.03,0.04,0.09s-0.01,0.09-0.04,0.09
	c-0.28,0-0.49-0.01-0.65-0.01l-0.84-0.01l-0.87,0.01C128.43,46.24,128.21,46.25,127.92,46.25z"/>
<path class="st1" d="M138.43,45.26c0.02,0,0.04,0.02,0.06,0.06c0.03,0.04,0.03,0.07,0.01,0.09c-0.37,0.36-0.75,0.62-1.12,0.78
	c-0.38,0.16-0.79,0.24-1.25,0.24c-0.63,0-1.17-0.13-1.63-0.39c-0.46-0.27-0.81-0.62-1.05-1.07c-0.24-0.45-0.36-0.93-0.36-1.45
	c0-0.58,0.15-1.12,0.43-1.6c0.29-0.49,0.69-0.88,1.2-1.16c0.52-0.29,1.1-0.43,1.75-0.43c0.62,0,1.1,0.14,1.44,0.42
	c0.34,0.28,0.51,0.72,0.51,1.31c0,0.31-0.06,0.47-0.17,0.47l-3.65,0.01c-0.01,0.07-0.01,0.19-0.01,0.35c0,0.88,0.2,1.57,0.6,2.07
	c0.41,0.5,0.99,0.75,1.76,0.75c0.27,0,0.5-0.03,0.69-0.09c0.19-0.06,0.44-0.17,0.75-0.33L138.43,45.26z M135.91,40.62
	c-0.33,0-0.6,0.15-0.82,0.44c-0.22,0.28-0.37,0.67-0.44,1.17l2.18-0.03c-0.01-0.51-0.08-0.9-0.22-1.17S136.23,40.62,135.91,40.62z"
	/>
<path class="st1" d="M145.48,46.07c0.05,0,0.08,0.03,0.08,0.09s-0.03,0.09-0.08,0.09c-0.18,0-0.46-0.01-0.84-0.03
	c-0.4-0.02-0.69-0.03-0.87-0.03c-0.16,0-0.42,0.01-0.78,0.03c-0.34,0.02-0.58,0.03-0.72,0.03c-0.04,0-0.06-0.03-0.06-0.09
	s0.02-0.09,0.06-0.09c0.22,0,0.38-0.03,0.48-0.08c0.1-0.06,0.15-0.15,0.15-0.25c0-0.08-0.03-0.19-0.09-0.32
	c-0.05-0.14-0.11-0.28-0.18-0.43l-1.26-2.69l-0.9,2.1c-0.18,0.42-0.27,0.76-0.27,1.02c0,0.43,0.24,0.65,0.72,0.65
	c0.05,0,0.07,0.03,0.07,0.09s-0.02,0.09-0.07,0.09c-0.11,0-0.26-0.01-0.46-0.03s-0.39-0.03-0.57-0.03c-0.21,0-0.41,0.01-0.61,0.03
	c-0.18,0.02-0.34,0.03-0.48,0.03c-0.05,0-0.08-0.03-0.08-0.09s0.03-0.09,0.08-0.09c0.18,0,0.37-0.12,0.57-0.38
	c0.21-0.26,0.46-0.74,0.76-1.42l1.74-4.03c0.02-0.04,0.05-0.06,0.09-0.06s0.07,0.02,0.09,0.06l1.86,3.96
	c0.26,0.57,0.46,0.98,0.6,1.23c0.14,0.24,0.28,0.41,0.42,0.51C145.07,46.03,145.25,46.07,145.48,46.07z"/>
<path class="st1" d="M150.94,45.26c0.02,0,0.04,0.02,0.06,0.06c0.03,0.04,0.04,0.07,0.01,0.09c-0.37,0.36-0.74,0.62-1.12,0.78
	s-0.79,0.24-1.24,0.24c-0.63,0-1.18-0.13-1.64-0.39c-0.46-0.27-0.81-0.62-1.05-1.07c-0.24-0.45-0.36-0.93-0.36-1.45
	c0-0.58,0.14-1.12,0.43-1.6c0.29-0.49,0.69-0.88,1.2-1.16c0.52-0.29,1.1-0.43,1.76-0.43c0.62,0,1.1,0.14,1.44,0.42
	c0.34,0.28,0.51,0.72,0.51,1.31c0,0.31-0.06,0.47-0.17,0.47l-3.64,0.01c-0.01,0.07-0.01,0.19-0.01,0.35c0,0.88,0.2,1.57,0.6,2.07
	c0.41,0.5,1,0.75,1.76,0.75c0.27,0,0.5-0.03,0.69-0.09s0.44-0.17,0.75-0.33L150.94,45.26z M148.42,40.62c-0.33,0-0.6,0.15-0.82,0.44
	c-0.22,0.28-0.37,0.67-0.43,1.17l2.18-0.03c-0.01-0.51-0.09-0.9-0.23-1.17S148.74,40.62,148.42,40.62z"/>
<path class="st1" d="M155.32,39.22c-0.39,0-0.76-0.06-1.11-0.19c-0.34-0.13-0.62-0.3-0.83-0.51c-0.2-0.22-0.3-0.45-0.3-0.7
	c0-0.18,0.05-0.32,0.16-0.42c0.11-0.11,0.27-0.16,0.48-0.16c0.19,0,0.33,0.04,0.42,0.13c0.1,0.08,0.17,0.18,0.21,0.3
	c0.04,0.11,0.08,0.28,0.12,0.5c0.04,0.26,0.11,0.47,0.21,0.61c0.11,0.14,0.32,0.21,0.62,0.21c0.3,0,0.51-0.07,0.64-0.22
	c0.13-0.16,0.22-0.38,0.26-0.66c0.06-0.3,0.13-0.52,0.21-0.66c0.09-0.14,0.25-0.21,0.49-0.21c0.2,0,0.35,0.06,0.46,0.16
	c0.11,0.1,0.17,0.24,0.17,0.42c0,0.25-0.11,0.49-0.32,0.7c-0.21,0.22-0.49,0.4-0.83,0.53C156.06,39.15,155.7,39.22,155.32,39.22z
	 M158.8,46.07c0.02,0,0.03,0.03,0.03,0.09s-0.01,0.09-0.03,0.09c-0.29,0-0.51-0.01-0.68-0.01l-0.82-0.01l-0.88,0.01
	c-0.16,0.01-0.38,0.01-0.66,0.01c-0.02,0-0.03-0.03-0.03-0.09s0.01-0.09,0.03-0.09c0.24,0,0.41-0.03,0.52-0.08
	c0.12-0.05,0.2-0.15,0.24-0.28c0.04-0.15,0.06-0.38,0.06-0.67v-3l-3.65,4.28c-0.03,0.04-0.1,0.06-0.19,0.06
	c-0.05,0-0.1-0.01-0.15-0.03c-0.05-0.01-0.07-0.02-0.07-0.03v-4.64c0-0.3-0.02-0.52-0.06-0.66c-0.04-0.15-0.12-0.25-0.23-0.3
	s-0.28-0.08-0.52-0.08c-0.02,0-0.03-0.03-0.03-0.09c0-0.06,0.01-0.09,0.03-0.09c0.23,0,0.4,0.01,0.52,0.01l0.96,0.02l1.21-0.02
	c0.09-0.01,0.2-0.01,0.33-0.01c0.03,0,0.04,0.03,0.04,0.09c0,0.06-0.01,0.09-0.04,0.09c-0.24,0-0.42,0.03-0.54,0.08
	c-0.11,0.05-0.19,0.15-0.23,0.3c-0.04,0.14-0.06,0.36-0.06,0.66v3.03l3.66-4.29c0.03-0.05,0.1-0.08,0.19-0.08
	c0.06,0,0.11,0.01,0.15,0.03c0.05,0.01,0.07,0.03,0.07,0.05v4.62c0,0.3,0.02,0.53,0.06,0.67c0.04,0.14,0.12,0.24,0.22,0.28
	C158.39,46.04,158.56,46.07,158.8,46.07z"/>
<g>
	<defs>
		<path id="SVGID_1_" d="M179,0h67c8.28,0,15,6.72,15,15v24c0,8.28-6.72,15-15,15h-67V0z"/>
	</defs>
	<clipPath id="SVGID_00000049923312421342337660000003543334806810445987_">
		<use xlink:href="#SVGID_1_"  style="overflow:visible;"/>
	</clipPath>
	<g style="clip-path:url(#SVGID_00000049923312421342337660000003543334806810445987_);">
		<path class="st3" d="M190.69,15.87c-0.73-0.4-1.52-0.64-2.31-0.91c-1.01-0.34-2.01-0.73-2.99-1.14c-0.56-0.23-1.1-0.45-1.62-0.77
			c-0.22-0.14-0.38-0.32-0.26-0.57c0.12-0.28,0.37-0.23,0.6-0.16c0.16,0.05,0.31,0.21,0.53,0.06c-0.33-0.53-0.85-0.89-1.22-1.38
			c-0.37-0.49-0.6-1.04-0.82-1.6c-0.12-0.3-0.17-0.67,0.14-0.93c0.34-0.28,0.75-0.3,1.13-0.12c0.6,0.29,1.19,0.61,1.88,0.65
			c0.16,0.01,0.32,0.09,0.5-0.06c-0.25-0.39-0.75-0.41-1.05-0.71c-0.16-0.16-0.54-0.22-0.37-0.55c0.17-0.33,0.52-0.3,0.8-0.15
			c0.71,0.37,1.41,0.78,2.1,1.18c0.5,0.29,0.99,0.48,1.5-0.01c0.21-0.21,0.54-0.12,0.82-0.14c0.14-0.01,0.35,0.05,0.4-0.12
			c0.05-0.18-0.14-0.3-0.28-0.37c-0.45-0.23-0.91-0.44-1.28-0.78c-0.6-0.56-1.32-0.96-1.99-1.43c-0.22-0.15-0.47-0.34-0.28-0.65
			c0.18-0.28,0.45-0.21,0.72-0.11c0.61,0.22,1.13,0.61,1.59,1.03c0.81,0.74,1.69,1.35,2.71,1.77c0.23,0.1,0.38,0.34,0.65,0.36
			c0.13,0.01,0.29,0.06,0.37-0.08c0.08-0.16-0.08-0.23-0.19-0.3c-0.41-0.29-0.8-0.61-1.23-0.86c-0.83-0.47-1.55-1.1-2.34-1.64
			c-0.5-0.34-0.92-0.77-1.35-1.19c-0.21-0.19-0.49-0.47-0.25-0.77s0.58-0.14,0.87,0c0.32,0.16,0.55,0.44,0.79,0.69
			c0.67,0.71,1.48,1.23,2.29,1.77c0.27,0.17,0.49,0.39,0.76,0.57c1.73,1.11,3.61,1.99,5.18,3.34c0.28,0.24,0.64,0.33,1.09,0.45
			c-0.26-0.5-0.66-0.73-1.01-0.97c-1.33-0.92-2.68-1.81-4.02-2.72c-0.1-0.06-0.19-0.14-0.27-0.22c-0.94-1-2.21-1.61-3.11-2.65
			c-0.43-0.49-1.11-0.6-1.57-1.06c-0.14-0.14-0.31-0.25-0.38-0.45c-0.11-0.38,0.06-0.62,0.45-0.53c0.61,0.14,1.16,0.44,1.6,0.88
			c0.81,0.82,1.67,1.57,2.54,2.32c0.84,0.72,1.78,1.29,2.68,1.92c0.77,0.55,1.56,1.1,2.34,1.62c0.65,0.44,1.27,0.92,1.86,1.44
			c0.18,0.16,0.4,0.4,0.75,0.39c-0.06-0.32-0.31-0.48-0.49-0.63c-0.54-0.42-1.02-0.91-1.66-1.21c-0.37-0.17-0.67-0.46-0.86-0.82
			c-0.11-0.2-0.16-0.37,0.04-0.53c0.21-0.16,0.41-0.21,0.64-0.03c0.64,0.53,1.29,1.06,1.93,1.58c0.11,0.09,0.22,0.21,0.5,0.13
			c-0.43-0.4-0.69-0.9-1.16-1.16c-0.94-0.52-1.62-1.33-2.43-2c-0.38-0.31-0.77-0.64-1.06-1.06c-0.08-0.12-0.2-0.25-0.09-0.41
			c0.11-0.15,0.3-0.15,0.46-0.07c0.25,0.14,0.52,0.23,0.72,0.45c0.52,0.57,1.22,0.94,1.72,1.52c0.05,0.06,0.12,0.12,0.22,0.06
			c0.05-0.16-0.08-0.24-0.17-0.32c-0.98-0.91-1.99-1.78-2.8-2.86c-0.33-0.44-0.87-0.66-1.23-1.1c-0.54-0.66-1.12-1.28-1.7-1.9
			c-0.38-0.4-0.81-0.75-1.29-1.02c-0.31-0.18-0.59-0.43-0.37-0.8c0.23-0.38,0.55-0.19,0.84-0.04c0.11,0.06,0.2,0.18,0.4,0.14
			c-0.12-0.21-0.23-0.4-0.33-0.6c-0.08-0.16-0.12-0.32,0.03-0.46c0.15-0.14,0.33-0.09,0.46,0c0.21,0.13,0.39,0.3,0.68,0.4
			c-0.25-0.58-0.49-1.16-0.75-1.73c-0.07-0.15-0.18-0.28-0.22-0.44c-0.18-0.76,0.22-1.17,0.96-0.92c0.42,0.14,0.88,0.23,1.25,0.5
			c0.24,0.17,0.42,0.14,0.53-0.17c0.14-0.4,0.4-0.43,0.68-0.15c0.49,0.5,0.93,1.04,1.32,1.62c0.36,0.55,0.83,0.94,1.51,1.09
			c-0.71-0.74-1.19-1.66-1.87-2.43c-0.22-0.25-0.41-0.53-0.55-0.84c-0.21-0.48,0.01-0.8,0.54-0.75c0.23,0.03,0.35,0.03,0.34-0.24
			c-0.01-0.27-0.03-0.58,0.33-0.64c0.16-0.03,0.32-0.01,0.47,0.07c0.14,0.08,0.26,0.2,0.32,0.35c0.36,0.82,0.99,1.46,1.47,2.2
			c0.7,1.08,1.61,2,2.26,3.11c0.46,0.79,0.95,1.57,1.56,2.26c0.19,0.21,0.32,0.47,0.62,0.55c0.11-0.14,0-0.23-0.06-0.31
			c-0.55-0.7-0.95-1.52-1.58-2.17c-0.48-0.5-0.7-1.17-1.02-1.77c-0.53-1.03-1.21-1.96-1.85-2.91c-0.46-0.67-0.71-1.48-1.34-2.04
			c-0.08-0.07-0.12-0.16-0.14-0.27c-0.01-0.1,0.02-0.21,0.08-0.29c0.14-0.2,0.37-0.2,0.54-0.12c0.42,0.2,0.81,0.44,1.06,0.87
			c0.93,1.6,1.86,3.2,2.83,4.77c0.2,0.33,0.26,0.72,0.49,1.04c1.03,1.45,2.04,2.91,3.06,4.35c0.29,0.41,0.78,0.66,1.06,1.09
			c-0.19-0.7-0.72-1.19-1.02-1.82c-0.29-0.61-0.76-1.09-1.07-1.68c-0.72-1.35-1.44-2.7-2.21-4.02c-0.7-1.21-1.48-2.38-2.24-3.56
			c-0.16-0.26-0.32-0.51-0.33-0.82c-0.01-0.19,0.01-0.37,0.2-0.48c0.19-0.11,0.36-0.05,0.52,0.04c0.43,0.24,0.56,0.69,0.78,1.08
			c1.01,1.76,2.02,3.53,3.03,5.29c0.24,0.42,0.5,0.83,0.66,1.29c0.24,0.69,0.64,1.27,1.07,1.85c0.38,0.5,0.63,1.1,0.96,1.64
			c0.21,0.35,0.47,0.68,0.74,1.07c0.16-0.39,0.02-0.65-0.13-0.92c-0.86-1.5-1.76-2.99-2.56-4.52c-0.96-1.83-2.03-3.61-2.98-5.44
			c-0.23-0.41-0.51-0.79-0.82-1.13c-0.26-0.31-0.31-0.65-0.28-1.03c0.01-0.18,0.01-0.38,0.23-0.45c0.19-0.06,0.32,0.05,0.45,0.17
			c0.41,0.37,0.64,0.85,0.87,1.33c0.68,1.39,1.53,2.67,2.15,4.08c0.49,1.11,1.1,2.16,1.75,3.19c0.27,0.44,0.54,0.88,0.81,1.32
			c0.12,0.2,0.22,0.44,0.54,0.47c-0.3-0.41-0.44-0.91-0.76-1.3c-0.21-0.26-0.38-0.55-0.5-0.86c-0.59-1.53-1.42-2.95-2.22-4.37
			c-0.65-1.15-1.21-2.36-1.89-3.49c-0.09-0.18-0.17-0.36-0.22-0.56c-0.08-0.27-0.04-0.5,0.23-0.64c0.27-0.14,0.49-0.03,0.67,0.18
			c0.11,0.12,0.2,0.26,0.26,0.42c0.4,1.25,1.21,2.3,1.73,3.49c0.52,1.17,1.2,2.26,1.58,3.49c0.22,0.72,0.68,1.37,1.04,2.05
			c0.03,0.06,0.07,0.11,0.14,0.14c0.06,0.03,0.13,0.04,0.2,0.02c0.17-0.04,0.18-0.18,0.19-0.32c0.02-0.18-0.02-0.37-0.13-0.53
			c-0.73-1.01-1.09-2.21-1.69-3.28c-0.83-1.47-1.33-3.1-2.28-4.51c-0.24-0.35-0.36-0.79-0.51-1.19c-0.05-0.11-0.06-0.23-0.03-0.35
			c0.03-0.12,0.1-0.22,0.19-0.29c0.24-0.18,0.44-0.01,0.62,0.14c0.24,0.19,0.41,0.45,0.49,0.74c0.2,0.72,0.6,1.37,0.75,2.12
			c0.06,0.28,0.26,0.53,0.42,0.79c0.6,0.95,0.92,2.04,1.54,2.97c0.12,0.19,0.2,0.42,0.41,0.55c0.17-0.21,0.11-0.42,0-0.58
			c-0.75-1.13-1.07-2.44-1.63-3.65c-0.54-1.16-0.83-2.43-1.57-3.51c-0.17-0.25-0.16-0.56,0.1-0.77c0.26-0.2,0.5-0.09,0.73,0.09
			c0.36,0.27,0.49,0.67,0.58,1.08c0.07,0.37,0.18,0.72,0.35,1.05c0.18-0.53,0.34-1.06,0.54-1.59c0.25-0.65,0.46-1.32,0.87-1.9
			c0.11-0.17,0.25-0.31,0.42-0.43c0.44-0.29,0.88-0.16,1.03,0.34c0.16,0.54,0.27,1.1,0.41,1.65c0.21,0.85,0.59,1.62,1.1,2.44
			c0.15-0.4,0.15-0.83,0.02-1.23c-0.26-0.81-0.55-1.61-0.82-2.42c-0.06-0.17-0.09-0.35-0.1-0.54c-0.01-0.22-0.02-0.46,0.24-0.54
			c0.25-0.08,0.51-0.08,0.71,0.11c0.22,0.22,0.42,0.46,0.46,0.81c0.12,1.01,0.26,2.02,0.38,3.03c0.07,0.53,0.34,1.05,0.07,1.61
			c-0.08,0.16,0.54,1.06,0.71,1.1c0.26,0.07,0.22-0.14,0.21-0.27c-0.07-1.04-0.38-2.03-0.61-3.03c-0.22-0.95-0.56-1.87-0.7-2.85
			c-0.04-0.29,0.04-0.5,0.32-0.59s0.48,0.04,0.61,0.29c0.16,0.31,0.26,0.65,0.28,1c0.07,0.99,0.33,1.93,0.58,2.89
			c0.19,0.72,0.4,1.45,0.33,2.2c-0.04,0.45,0.1,0.87,0.24,1.27c0.28,0.84,0.74,1.6,0.94,2.48c0.18-0.37,0.04-0.7-0.07-1.01
			c-0.08-0.24-0.19-0.47-0.18-0.72c0.03-1.05-0.44-2-0.62-3.01c-0.06-0.23-0.09-0.46-0.1-0.69c0.01-0.96-0.21-1.87-0.5-2.78
			c-0.18-0.61-0.24-1.25-0.19-1.88c0.02-0.27,0.15-0.55,0.48-0.55c0.33,0,0.47,0.27,0.48,0.55c0.04,1.18,0.41,2.32,0.46,3.51
			c0.04,1.02,0.41,2.02,0.57,3.05c0.07,0.46,0.05,0.93,0.18,1.39c0.04,0.16,0.05,0.33,0.24,0.46c0.14-0.36,0.16-0.75,0.05-1.12
			c-0.42-1.39-0.31-2.85-0.61-4.25c-0.2-0.95-0.18-1.96-0.25-2.94c-0.02-0.25,0.08-0.47,0.38-0.49c0.3-0.01,0.47,0.16,0.5,0.45
			c0.14,1.06,0.24,2.12,0.41,3.18c0.17,1.1,0.05,2.26,0.35,3.32c0.27,0.95-0.06,1.88,0.23,2.8c0.39,1.21,0.11,2.53,0.57,3.74
			c0.07,0.19,0.05,0.43,0.05,0.65c0.01,0.43,0.18,0.8,0.4,1.16c0.25-0.12,0.19-0.33,0.19-0.49c0-0.7,0.02-1.4-0.16-2.09
			c-0.22-0.81-0.09-1.65-0.18-2.48c-0.1-0.97-0.13-1.96-0.27-2.93c-0.31-2.23-0.14-4.49-0.55-6.71c-0.03-0.2-0.02-0.4,0.03-0.6
			c0.04-0.19,0.08-0.37,0.33-0.38c0.1-0.01,0.2,0.01,0.29,0.06c0.09,0.06,0.15,0.14,0.18,0.24c0.11,0.31,0.26,0.62,0.24,0.97
			c-0.12,1.89,0.22,3.76,0.24,5.65c0.01,0.93-0.03,1.9,0.22,2.84c0.1,0.41,0.09,0.84-0.05,1.24c-0.13,0.37-0.03,0.73,0.02,1.09
			c0.01,0.1,0.04,0.22,0.16,0.21c0.12-0.01,0.13-0.14,0.15-0.23c0.06-0.43,0.09-0.86,0.12-1.29c0.09-1.19-0.26-2.34-0.27-3.52
			c-0.01-1.02,0.03-2.03,0.03-3.04c0-1.22-0.32-2.42-0.21-3.64c0.01-0.23,0.03-0.46,0.07-0.69c0.06-0.29,0.23-0.51,0.56-0.45
			c0.33,0.06,0.47,0.31,0.42,0.64c-0.09,0.64-0.14,1.29-0.16,1.94c-0.02,1.23,0.13,2.46,0.12,3.7c-0.01,0.64-0.17,1.29,0.07,1.97
			c0.26-0.24,0.35-0.54,0.4-0.84c0.09-0.43,0.13-0.86,0.12-1.29c-0.08-1.8,0.22-3.6,0.11-5.4c-0.02-0.28-0.12-0.73,0.28-0.75
			c0.39-0.02,0.37,0.43,0.41,0.74c0.03,0.18,0,0.36,0.04,0.55c0.1-0.42,0.23-0.83,0.4-1.22c0.2-0.47,0.56-0.68,1.07-0.67
			c0.35,0.01,0.57,0.16,0.68,0.48c0.13,0.37,0.26,0.73,0.42,1.17c0.17-0.31,0.05-0.52,0.02-0.74c-0.05-0.29-0.09-0.61,0.21-0.82
			c0.08-0.06,0.18-0.09,0.28-0.09c0.1,0,0.2,0.03,0.29,0.09c0.13,0.08,0.23,0.2,0.28,0.35c0.05,0.14,0.06,0.3,0.01,0.45
			c-0.44,1.63-0.08,3.24,0.1,4.85c0.09,0.76,0.11,1.53,0.2,2.29c0.02,0.2,0.01,0.57,0.3,0.54c0.24-0.03,0.22-0.37,0.22-0.6
			c0.01-1.52,0.01-3.03,0.01-4.55c0-0.63,0.04-1.27-0.06-1.9c-0.05-0.36,0.16-0.64,0.51-0.68c0.35-0.04,0.54,0.24,0.55,0.58
			c0.01,0.63,0.07,1.27-0.11,1.89c-0.11,0.38-0.08,0.76-0.08,1.14c0,1.47,0.12,2.94-0.02,4.4c-0.15,1.56,0.3,3.08,0.14,4.62
			c0,0.05,0,0.1,0.02,0.15c0.01,0.03,0.04,0.04,0.09,0.08c0.06-0.09,0.11-0.18,0.13-0.29c0.03-0.1,0.03-0.21,0.01-0.32
			c-0.19-1.77,0.06-3.53,0.07-5.3c0-0.38-0.04-0.76-0.05-1.15c-0.06-1.74,0.26-3.46,0.22-5.2c-0.01-0.52,0.29-0.87,0.6-0.83
			c0.36,0.05,0.64,0.51,0.56,0.98c-0.28,1.77-0.2,3.55-0.22,5.33c-0.01,1.06-0.12,2.12-0.24,3.18c-0.1,0.87-0.28,1.81,0.17,2.76
			c0.23-0.33,0.33-0.73,0.3-1.13c-0.06-1.03,0.16-2.02,0.35-3.02c0.15-0.8-0.01-1.64,0.06-2.45c0.13-1.36-0.05-2.74,0.27-4.09
			c0.15-0.63,0.43-0.97,0.74-0.84c0.47,0.2,0.4,0.63,0.34,1.04c-0.27,1.85-0.48,3.71-0.32,5.56c0.12-0.21,0.33-1.43,0.37-1.91
			c0.13-1.48,0.36-2.95,0.69-4.39c0.08-0.37,0.32-0.62,0.72-0.53c0.43,0.1,0.42,0.46,0.36,0.81c-0.13,0.69-0.57,1.27-0.68,1.98
			c-0.23,1.5-0.72,2.97-0.61,4.52c0.02,0.27-0.15,0.55,0.02,0.9c0.23-0.62,0.44-1.19,0.49-1.79c0.16-1.78,0.54-3.52,1.12-5.21
			c0.09-0.27,0.21-0.58,0.59-0.47c0.35,0.1,0.34,0.43,0.3,0.71c-0.09,0.63-0.42,1.2-0.57,1.8c-0.33,1.27-0.57,2.56-0.7,3.87
			c-0.12,1.27-0.52,2.48-0.84,3.7c-0.15,0.58-0.36,1.15-0.26,1.76c0.02,0.11-0.01,0.24,0.13,0.3c0.16,0.07,0.25-0.05,0.34-0.15
			c0.16-0.17,0.28-0.38,0.35-0.6c0.28-0.93,0.38-1.89,0.53-2.84c0.26-1.63,0.54-3.25,0.88-4.86c0.2-0.93,0.33-1.87,0.62-2.77
			c0.11-0.35,0.34-0.57,0.71-0.42c0.08,0.03,0.15,0.07,0.21,0.13c0.06,0.06,0.1,0.13,0.13,0.21s0.03,0.16,0.02,0.24
			c-0.01,0.08-0.04,0.16-0.09,0.23c-0.88,1.25-0.67,2.76-1.03,4.12c-0.3,1.13-0.4,2.29-0.62,3.43c-0.1,0.53-0.51,0.99-0.4,1.58
			c0.03,0.13-0.07,0.34,0.13,0.38c0.16,0.03,0.28-0.13,0.33-0.27c0.12-0.32,0.27-0.66,0.31-0.99c0.14-1.26,0.53-2.47,0.55-3.75
			c0.01-0.49,0.25-0.93,0.38-1.4c0.26-1.02,0.49-2.04,0.9-3.02c0.04-0.14,0.12-0.28,0.22-0.39c0.12-0.11,0.25-0.17,0.41-0.11
			c0.07,0.03,0.13,0.08,0.17,0.14c0.04,0.06,0.06,0.14,0.05,0.22c-0.01,0.12-0.03,0.23-0.05,0.35c-0.02,0.17-0.17,0.38,0.07,0.49
			c0.23,0.1,0.3-0.13,0.43-0.26c0.57-0.59,1.29-1,1.93-1.49c0.36-0.28,1.14-0.08,1.39,0.23c0.28,0.35,0.23,0.94-0.11,1.45
			c-0.52,0.77-0.71,1.66-0.87,2.56c-0.03,0.17-0.05,0.37,0.11,0.55c0.41-0.48,0.41-1.12,0.66-1.65c0.1-0.25,0.23-0.48,0.39-0.7
			c0.17-0.21,0.42-0.31,0.67-0.16c0.25,0.15,0.23,0.43,0.11,0.63c-0.61,1.01-0.9,2.15-1.41,3.2c-0.14,0.29-0.31,0.59-0.12,0.99
			c0.3-0.32,0.55-0.68,0.72-1.08c0.22-0.5,0.5-0.98,0.83-1.42c0.24-0.3,0.31-0.73,0.48-1.09c0.13-0.27,0.27-0.63,0.65-0.43
			c0.34,0.17,0.25,0.52,0.12,0.8c-0.52,1.05-1.08,2.07-1.51,3.16c-0.09,0.23-0.22,0.45-0.13,0.76c0.31-0.26,0.43-0.61,0.57-0.92
			c0.48-1.01,0.99-2,1.55-2.97c0.04-0.07,0.08-0.14,0.13-0.21c0.2-0.27,0.47-0.51,0.8-0.33c0.36,0.2,0.15,0.51,0.04,0.79
			c-0.2,0.54-0.66,0.97-0.63,1.63c0.12-0.18,0.25-0.36,0.37-0.54c0.1-0.15,0.18-0.32,0.3-0.46c0.2-0.25,0.47-0.55,0.79-0.3
			c0.3,0.24-0.01,0.49-0.15,0.73c-0.43,0.78-0.8,1.6-1.11,2.43c0.16,0.03,0.21-0.03,0.23-0.08c0.37-0.88,1.01-1.61,1.34-2.5
			c0.16-0.44,0.54-0.65,0.88-0.5c0.34,0.15,0.45,0.59,0.2,1c-0.56,0.92-1.08,1.87-1.58,2.83c-0.27,0.52-0.57,1.02-0.87,1.52
			c-0.28,0.48-0.33,1.06-0.61,1.56c-0.17,0.31-0.45,0.59-0.48,1.01c0.21,0.01,0.28-0.15,0.33-0.27c0.48-1.04,1.21-1.93,1.66-3.01
			c0.54-1.3,1.31-2.5,2-3.73c0.13-0.23,0.32-0.49,0.63-0.4c0.31,0.09,0.43,0.32,0.27,0.62c-0.22,0.43-0.41,0.89-0.72,1.25
			c-0.76,0.89-1.1,2-1.59,3.02c-0.7,1.47-1.44,2.92-2.23,4.35c-0.1,0.19-0.26,0.36-0.26,0.59c0,0.08,0,0.18,0.1,0.21
			c0.02,0.01,0.04,0.01,0.06,0.01c0.02,0,0.04-0.01,0.06-0.02c0.02-0.01,0.04-0.02,0.05-0.04c0.01-0.02,0.02-0.04,0.03-0.06
			c0.27-0.82,0.83-1.47,1.28-2.19c0.47-0.74,0.92-1.5,1.36-2.26c0.28-0.49,0.56-0.99,0.8-1.5c0.48-1.03,1.22-1.9,1.67-2.95
			c0.15-0.34,0.47-0.36,0.77-0.18c0.32,0.19,0.25,0.47,0.11,0.74c-0.5,0.96-1.22,1.8-1.69,2.78c-0.7,1.45-1.71,2.73-2.24,4.3
			c0.27-0.29,0.63-0.55,0.78-0.89c0.41-0.93,1.11-1.67,1.6-2.53c0.54-0.94,1.21-1.8,1.69-2.77c0.13-0.27,0.37-0.41,0.67-0.3
			c0.29,0.11,0.18,0.36,0.13,0.56c-0.18,0.71-0.63,1.29-1.04,1.87c-0.53,0.75-0.88,1.6-1.41,2.36c-0.21,0.3-0.41,0.6-0.62,0.9
			c-0.07,0.1-0.2,0.23-0.09,0.35c0.14,0.14,0.3,0.03,0.4-0.07c0.18-0.17,0.35-0.36,0.5-0.56c0.85-1.11,1.69-2.22,2.53-3.35
			c0.15-0.2,0.2-0.46,0.35-0.66c0.18-0.26,0.46-0.45,0.77-0.26c0.31,0.19,0.21,0.48,0.09,0.76c-0.25,0.56-0.8,0.93-0.97,1.58
			c0.35-0.09,0.67-0.27,0.92-0.53c0.25-0.27,0.56-0.48,0.9-0.63c0.39-0.18,0.82-0.35,1.16,0c0.35,0.35,0.27,0.85,0.06,1.26
			c-0.26,0.52-0.57,1.02-0.86,1.53c-0.25,0.43-0.49,0.87-0.82,1.25c-0.19,0.21-0.3,0.48-0.32,0.76c0.28,0.02,0.41-0.17,0.49-0.35
			c0.4-0.96,1.27-1.56,1.83-2.4c0.07-0.11,0.18-0.25,0.32-0.17c0.19,0.12,0.03,0.27-0.03,0.39c-0.44,0.76-0.94,1.49-1.5,2.18
			c-0.21,0.23-0.39,0.5-0.53,0.78c-0.22,0.5-0.53,0.92-1.03,1.19c-0.39,0.21-0.58,0.6-0.78,0.96c-0.3,0.54-0.55,1.11-0.76,1.7
			c0.83-0.85,1.69-1.66,2.28-2.69c0.11-0.19,0.21-0.39,0.38-0.53c0.84-0.69,1.33-1.61,1.83-2.54c0.14-0.25,0.34-0.46,0.59-0.6
			c0.17-0.1,0.35-0.14,0.51,0c0.07,0.06,0.12,0.14,0.15,0.23c0.02,0.09,0.02,0.18-0.01,0.27c-0.02,0.1-0.07,0.19-0.13,0.27
			c-0.9,1.1-1.53,2.4-2.43,3.47c-0.72,0.86-1.42,1.72-2.07,2.63c-0.07,0.09-0.14,0.19-0.19,0.29c-0.03,0.03-0.04,0.08-0.03,0.12
			c0.01,0.04,0.03,0.08,0.06,0.11c0.08,0.05,0.15-0.01,0.22-0.06c1.19-0.95,2.17-2.08,3.1-3.27c0.65-0.82,1.41-1.56,2.13-2.32
			c0.15-0.16,0.35-0.3,0.58-0.17s0.22,0.4,0.17,0.63c-0.02,0.15-0.09,0.29-0.18,0.4c-1.15,1.14-2.09,2.46-3.19,3.64
			c-0.8,0.86-1.66,1.69-2.51,2.51c-0.74,0.7-1.45,1.43-2.12,2.2c-0.7,0.83-1.58,1.48-2.29,2.3c-0.1,0.12-0.27,0.2-0.29,0.43
			c0.38-0.09,0.62-0.34,0.85-0.59c1-1.1,2.02-2.17,3.24-3.03c1.01-0.71,1.75-1.7,2.67-2.5c0.99-0.86,1.96-1.77,2.89-2.71
			c0.48-0.49,0.96-0.98,1.47-1.43c0.28-0.25,0.61-0.39,0.88-0.08c0.25,0.28,0.19,0.66-0.1,0.9c-1.25,1.04-2.21,2.39-3.46,3.41
			c-1.04,0.84-1.99,1.77-2.97,2.68c-0.14,0.13-0.26,0.3-0.44,0.5c0.12,0.01,0.24,0,0.34-0.05c0.11-0.05,0.2-0.12,0.27-0.21
			c0.64-0.7,1.45-1.17,2.17-1.76c1.51-1.24,3.11-2.35,4.44-3.8c0.25-0.28,0.54-0.43,0.86-0.13c0.32,0.3,0.12,0.58-0.1,0.87
			c-0.67,0.89-1.66,1.38-2.45,2.1c-1.07,0.98-2.37,1.68-3.37,2.74c-0.68,0.73-1.54,1.22-2.36,1.76c-0.36,0.24-0.73,0.46-0.93,0.86
			c0.12,0.1,0.21,0.03,0.29-0.02c0.96-0.69,2.02-1.22,3.01-1.85c0.56-0.35,1-0.87,1.59-1.2c1-0.56,1.78-1.44,2.78-2
			c0.35-0.19,0.65-0.47,0.87-0.81c0.23-0.35,0.55-0.62,0.89-0.87c0.27-0.2,0.57-0.19,0.86-0.11c0.34,0.1,0.44,0.48,0.19,0.77
			c-0.17,0.18-0.36,0.34-0.57,0.49c-0.09,0.07-0.21,0.11-0.29,0.19c-0.82,0.85-1.88,1.39-2.77,2.13c-1.38,1.14-2.99,1.89-4.41,2.95
			c-0.18,0.13-0.51,0.25-0.38,0.5c0.13,0.25,0.5,0.18,0.73,0.08c0.6-0.26,1.18-0.56,1.73-0.9c0.39-0.25,0.82-0.46,1.19-0.74
			c1.55-1.13,3.09-2.26,4.62-3.41c0.33-0.25,0.62-0.26,0.9,0c0.32,0.31,0.03,0.57-0.17,0.76c-0.36,0.35-0.82,0.58-1.22,0.87
			c-1.42,1.03-2.93,1.92-4.32,2.99c-0.27,0.21-0.62,0.33-0.94,0.48c-0.17,0.08-0.4,0.13-0.33,0.36c0.08,0.23,0.29,0.1,0.44,0.06
			c0.82-0.21,1.55-0.66,2.25-1.08c1.42-0.87,2.91-1.63,4.27-2.61c0.18-0.13,0.39-0.2,0.6-0.22c0.1-0.01,0.2,0.01,0.29,0.06
			c0.09,0.05,0.16,0.13,0.2,0.22c0.09,0.18-0.01,0.32-0.11,0.46c-0.4,0.59-1.04,0.82-1.64,1.1c-0.63,0.3-1.26,0.61-1.88,0.93
			c-0.11,0.06-0.28,0.13-0.2,0.3c0.06,0.13,0.22,0.07,0.32,0.03c0.62-0.25,1.23-0.5,1.84-0.78c0.43-0.19,0.83-0.43,1.24-0.65
			c0.27-0.15,0.55-0.24,0.73,0.1c0.17,0.32,0.17,0.65-0.13,0.91c-0.19,0.17-0.61,0.21-0.53,0.51c0.08,0.3,0.49,0.28,0.77,0.37
			c0.52,0.17,1.06,0.11,1.59,0.22c0.43,0.09,0.82,0.21,0.95,0.69c0.13,0.48-0.19,0.75-0.51,0.99c-1.07,0.83-2.28,1.43-3.55,1.91
			c-0.11,0.03-0.22,0.08-0.32,0.14c-0.19,0.14-0.55,0.22-0.4,0.53c0.13,0.27,0.45,0.16,0.68,0.1c1.13-0.35,2.24-0.79,3.3-1.31
			c0.09-0.05,0.18-0.09,0.27-0.13c0.23-0.07,0.48-0.16,0.62,0.12c0.14,0.28-0.01,0.48-0.25,0.62c-1.46,0.9-3.02,1.58-4.73,1.85
			c-0.45,0.07-0.88,0.23-1.33,0.23c-0.22,0-0.36,0.16-0.5,0.3c-0.21,0.21-0.41,0.44-0.69,0.6c0.58-0.02,1.16-0.15,1.69-0.38
			c0.37-0.17,0.75-0.29,1.14-0.37c1.09-0.17,2.08-0.61,3.1-0.99c0.12-0.05,0.26-0.07,0.39-0.06c0.29,0.03,0.57,0.12,0.64,0.46
			s-0.11,0.56-0.42,0.65c-1.03,0.29-2.06,0.58-3.09,0.84c-1.29,0.33-2.62,0.5-3.88,0.95c-1.26,0.44-2.59,0.47-3.91,0.49
			c-1.02,0.02-2.03,0.29-2.93,0.78c-0.13,0.07-0.32,0.16-0.26,0.32c0.06,0.16,0.27,0.11,0.4,0.07c1.53-0.47,3.13-0.52,4.69-0.8
			c0.84-0.15,1.71-0.35,2.58-0.29c0.23,0.02,0.52-0.03,0.59,0.26c0.07,0.33-0.25,0.44-0.46,0.49c-0.7,0.16-1.36,0.44-2.14,0.4
			c-1.06-0.05-2.11,0.31-3.14,0.57c-0.49,0.12-1.04,0.01-1.48,0.4c0.85-0.05,1.71-0.09,2.57-0.16c1.7-0.13,3.37-0.48,5.05-0.79
			c0.61-0.11,1.25-0.04,1.83-0.2c0.92-0.25,1.86-0.32,2.77-0.51c0.52-0.11,1.03-0.27,1.56-0.33c0.32-0.04,0.64,0.01,0.8,0.3
			c0.17,0.32,0.02,0.64-0.24,0.85c-0.35,0.29-0.32,0.44,0.1,0.58c0.32,0.1,0.52,0.35,0.46,0.69c-0.06,0.36-0.34,0.54-0.69,0.55
			c-0.7,0.02-1.41,0.11-2.1,0.09c-1.23-0.03-2.47,0.01-3.64,0.29c-1.17,0.28-2.37,0.3-3.54,0.48c-0.68,0.11-1.39,0.22-2.1,0.13
			c-0.09-0.01-0.2-0.07-0.27,0.05c0,0.02,0,0.03,0.01,0.05c0.01,0.02,0.02,0.03,0.03,0.04c0.01,0.01,0.03,0.02,0.04,0.03
			c0.02,0.01,0.03,0.01,0.05,0.01c1.01,0.04,2.04,0.18,3.04,0.08c1.29-0.13,2.57-0.41,3.86-0.42c1.38-0.01,2.71-0.4,4.08-0.37
			c0.15,0,0.3-0.04,0.45-0.04c0.3-0.01,0.59,0.04,0.7,0.36c0.12,0.3,0,0.56-0.23,0.76c-0.18,0.16-0.29,0.26-0.09,0.52
			c0.24,0.32,0.09,0.56-0.29,0.66c-0.22,0.06-0.44,0.14-0.66,0.22c-0.12,0.04-0.22,0.1-0.2,0.25c0.01,0.12,0.12,0.15,0.22,0.18
			c0.57,0.19,1.14,0.37,1.72,0.55c0.42,0.14,0.95,0.21,1.04,0.73c0.09,0.52-0.2,0.96-0.65,1.27c-0.14,0.09-0.25,0.23-0.39,0.31
			c-0.36,0.2-0.65,0.37-0.14,0.77c0.23,0.18,0.1,0.43-0.12,0.58c-0.12,0.08-0.26,0.13-0.4,0.14c-0.14,0.02-0.29,0-0.42-0.05
			c-0.43-0.13-0.89-0.18-1.34-0.13c-0.6,0.06-1.14-0.26-1.73-0.25c-0.1,0-0.2-0.04-0.3-0.03c-0.16,0.02-0.41,0.01-0.42,0.18
			c-0.01,0.22,0.25,0.18,0.4,0.19c1.09,0.03,2.14,0.36,3.21,0.51c0.8,0.11,1.01,0.53,0.58,1.22c-0.12,0.19-0.08,0.32,0.03,0.5
			c0.32,0.49,0.07,0.99-0.52,1.07c-0.08,0.02-0.17,0.01-0.25-0.01c-0.82-0.26-1.68-0.27-2.53-0.33c-1.01-0.07-1.92-0.55-2.91-0.75
			c-0.67-0.13-1.36-0.17-2.03-0.27c-0.77-0.11-1.54-0.29-2.32-0.33c-0.24-0.01-0.49-0.06-0.77,0.06c0.28,0.3,0.62,0.35,0.94,0.37
			c1.44,0.11,2.81,0.6,4.24,0.78c1.35,0.17,2.58,0.83,3.96,0.83c0.3,0,0.6,0.05,0.9,0.06c0.25,0,0.5,0.04,0.74,0.12
			c0.52,0.21,0.62,0.66,0.21,1.06c-0.12,0.11-0.25,0.2-0.39,0.29c0.02,0.17,0.16,0.17,0.26,0.21c0.3,0.15,0.6,0.32,0.46,0.71
			c-0.14,0.39-0.5,0.59-0.89,0.45c-0.73-0.25-1.52-0.25-2.24-0.54c-1-0.4-2.08-0.48-3.12-0.7c-1.39-0.29-2.78-0.56-4.17-0.87
			c-0.83-0.18-1.62-0.58-2.45-0.83c-0.12-0.04-0.24-0.13-0.41-0.04c0.21,0.43,0.62,0.58,1.03,0.69c0.64,0.19,1.31,0.3,1.94,0.48
			c1.43,0.4,2.9,0.63,4.33,1.06c1.28,0.38,2.59,0.74,3.92,1.02c0.36,0.09,0.71,0.21,1.04,0.37c0.26,0.12,0.4,0.31,0.35,0.6
			c-0.05,0.3-0.3,0.34-0.54,0.33c-0.85-0.04-1.69-0.19-2.5-0.45c-1.71-0.57-3.43-1.11-5.17-1.59c-0.2-0.04-0.38-0.13-0.53-0.28
			c-0.19-0.22-0.39-0.3-0.65-0.13c-0.12,0.08-0.37-0.03-0.37,0.17c-0.01,0.22,0.21,0.38,0.39,0.4c0.58,0.04,1.06,0.43,1.63,0.48
			c1.04,0.09,1.96,0.55,2.9,0.92c0.65,0.26,1.33,0.43,2.02,0.52c0.73,0.09,1.44,0.4,2.15,0.63c0.26,0.08,0.32,0.32,0.3,0.57
			c0,0.13-0.05,0.25-0.13,0.35c-0.08,0.1-0.19,0.17-0.31,0.2c-0.18,0.05-0.4,0.09-0.54-0.02c-0.55-0.4-1.22-0.49-1.83-0.64
			c-1.66-0.42-3.15-1.32-4.87-1.52c-0.3-0.04-0.6-0.17-1.01-0.28c0.39,0.5,0.71,0.87,1.29,0.98c0.6,0.14,1.2,0.32,1.78,0.53
			c0.25,0.08,0.58,0.2,0.44,0.54c-0.12,0.31-0.44,0.45-0.79,0.34c-0.33-0.1-0.66-0.22-1.07-0.17c0.17,0.3,0.44,0.52,0.77,0.62
			c1.55,0.53,3.01,1.26,4.49,1.97c0.53,0.26,0.6,0.56,0.25,1.03c-0.18,0.24-0.16,0.42,0,0.63c0.29,0.35,0.66,0.62,1.09,0.78
			c0.19,0.08,0.38,0.14,0.56,0.23c0.78,0.35,0.84,0.75,0.2,1.33c-0.52,0.47-1.1,0.67-1.82,0.7c-1.56,0.07-2.93-0.37-4.2-1.23
			c-0.3-0.2-0.65-0.34-0.98-0.5c-0.1-0.05-0.24-0.12-0.33-0.01c-0.12,0.15,0.04,0.24,0.13,0.33c0.6,0.64,1.36,1.08,2.09,1.54
			c0.33,0.21,0.62,0.46,0.78,0.82c0.04,0.07,0.06,0.16,0.06,0.24c-0.01,0.08-0.04,0.16-0.09,0.23c-0.06,0.07-0.14,0.12-0.23,0.14
			c-0.09,0.02-0.19,0.02-0.27-0.02c-0.34-0.1-0.64-0.3-0.87-0.57c-0.5-0.65-1.18-1.08-1.82-1.55c-0.3-0.22-0.5-0.54-0.83-0.72
			c-0.18-0.09-0.34-0.22-0.52-0.3c-0.16-0.07-0.39-0.2-0.51-0.04c-0.13,0.18,0.13,0.27,0.24,0.37c1.1,0.97,2.21,1.93,3.33,2.88
			c0.27,0.23,0.43,0.42,0.16,0.74c-0.25,0.3-0.54,0.34-0.83,0.08c-0.93-0.83-2.03-1.47-2.87-2.41c-0.03-0.04-0.07-0.07-0.11-0.1
			c-1.07-0.53-2.01-1.24-2.9-2.02c-0.11-0.1-0.29-0.16-0.4,0c-0.11,0.16,0.05,0.24,0.15,0.32c1.36,1.13,2.71,2.26,4.07,3.37
			c0.81,0.66,1.59,1.37,2.47,1.95c0.35,0.23,0.32,0.59,0.13,0.94s-0.42,0.27-0.75,0.18c-0.67-0.18-1.04-0.62-1.33-1.19
			c-0.06-0.14-0.17-0.25-0.3-0.33c-0.99-0.53-1.66-1.44-2.53-2.11c-1.64-1.26-3.17-2.66-4.87-3.84c-1.18-0.82-2.1-1.95-3.28-2.79
			c-0.1-0.07-0.17-0.22-0.42-0.12c0.8,0.67,1.29,1.6,2.22,2.08c0.38,0.18,0.71,0.44,0.99,0.76c0.55,0.65,1.2,1.22,1.92,1.67
			c0.41,0.29,0.78,0.62,1.1,1c0.84,0.91,1.78,1.71,2.8,2.4c1.18,0.81,2.05,1.89,3.11,2.79c0.3,0.26,0.38,0.61,0.14,0.88
			c-0.27,0.3-0.6,0.11-0.82-0.15c-0.83-1.02-1.85-1.82-2.86-2.63c-1.09-0.87-2.14-1.8-3.33-2.56c-0.1-0.05-0.2-0.09-0.3-0.13
			c0.28,0.4,0.59,0.55,0.85,0.76c1.04,0.84,2.02,1.75,2.92,2.73c0.48,0.51,1.16,0.79,1.63,1.33c0.22,0.25,0.41,0.52,0.57,0.81
			c0.11,0.19,0.14,0.39-0.04,0.55c-0.19,0.17-0.4,0.08-0.54-0.07c-1.1-1.17-2.51-1.99-3.56-3.22c-0.34-0.39-0.72-0.74-1.21-0.96
			c-0.34-0.15-0.54-0.49-0.79-0.76c-0.37-0.41-0.73-0.82-1.31-1.08c0.13,0.62,0.6,0.97,1,1.24c0.82,0.56,1.34,1.46,2.22,1.93
			c0.07,0.05,0.12,0.11,0.17,0.18c0.19,0.24,0.41,0.51,0.2,0.8c-0.2,0.27-0.51,0.16-0.79,0.08c-0.08-0.02-0.15-0.09-0.23-0.01
			c-0.01,0.04-0.01,0.09,0.01,0.12c0.02,0.04,0.05,0.07,0.09,0.09c0.98,0.67,1.59,1.7,2.41,2.52c0.24,0.24,0.49,0.45,0.82,0.55
			l-0.01-0.01c0.03,1.09,0.03,1.09-1.17,0.5c0.69,0.95,0.78,2.06,1.27,3.01c0.13,0.26,0.19,0.57-0.08,0.78
			c-0.27,0.21-0.58,0.16-0.85,0.01c-0.35-0.19-0.69-0.4-1.04-0.61c-0.11-0.08-0.24-0.12-0.37-0.12c-0.13,0-0.26,0.04-0.38,0.11
			c-0.43,0.25-0.81,0.2-1.13-0.23c-0.29-0.38-0.65-0.72-1.05-0.99c-0.14,0.26,0,0.41,0.11,0.54c0.26,0.3,0.33,0.69,0.5,1.03
			c0.15,0.3-0.02,0.56-0.29,0.71c-0.27,0.15-0.45-0.05-0.58-0.24c-0.14-0.21-0.26-0.43-0.36-0.65c-0.5-1-1.39-1.75-1.87-2.76
			c-0.19-0.39-0.32-0.81-0.7-1.08c-0.1-0.07-0.2-0.22-0.35-0.1c-0.12,0.1-0.01,0.21,0.03,0.32c0.13,0.35,0.38,0.62,0.58,0.93
			c0.75,1.16,1.33,2.42,2.14,3.56c0.38,0.53,0.35,1.19,0,1.3c-0.57,0.19-0.8-0.35-1.01-0.68c-0.54-0.88-0.95-1.84-1.51-2.71
			c-0.65-1.01-1.23-2.05-1.83-3.09c-0.21-0.34-0.49-0.62-0.83-0.82c-0.15,0.2-0.05,0.36,0.04,0.51c0.5,0.88,0.88,1.84,1.7,2.51
			c0.08,0.06,0.13,0.16,0.14,0.25c0.11,1.24,0.96,2.13,1.5,3.17c0.17,0.32,0.36,0.64,0.49,0.98c0.09,0.23,0.07,0.48-0.17,0.62
			c-0.24,0.14-0.4,0-0.56-0.18c-0.53-0.59-0.98-1.26-1.31-1.98c-0.4-0.84-0.8-1.72-1.42-2.46c-0.14-0.17-0.29-0.35-0.35-0.55
			c-0.38-1.32-1.34-2.33-1.93-3.54c-0.36-0.74-1.08-1.22-1.35-2.01c-0.03-0.06-0.07-0.12-0.12-0.16c-0.12-0.11-0.27-0.31-0.41-0.21
			c-0.19,0.14,0.06,0.28,0.1,0.42c0.27,0.8,1,1.27,1.43,1.97c0.46,0.75,0.87,1.53,1.33,2.29c0.46,0.75,0.84,1.58,1.26,2.37
			c0.68,1.28,1.3,2.59,1.99,3.87c0.24,0.44,0.48,0.9,0.21,1.42c-0.22,0.43-0.51,0.48-0.8,0.1c-0.27-0.35-0.57-0.69-0.59-1.19
			c-0.02-0.23-0.09-0.46-0.2-0.66c-0.74-1.36-1.35-2.78-2.2-4.09c-0.59-0.92-1.01-1.95-1.59-2.89c-0.15-0.24-0.33-0.66-0.55-0.55
			c-0.27,0.14,0.01,0.5,0.12,0.74c0.26,0.57,0.7,1.07,0.78,1.72c0.02,0.06,0.06,0.12,0.11,0.16c0.79,0.78,1.13,1.85,1.72,2.75
			c0.5,0.76,0.65,1.66,1.21,2.39c0.42,0.53,0.68,1.16,0.77,1.83c0.01,0.07,0.02,0.13,0.03,0.2c-0.01,0.51-1.25,1.25-1.71,1.01
			c-0.15-0.08-0.28-0.17-0.42,0.04c-0.35,0.55-0.6,0.55-1.01,0.07c-0.08-0.1-0.12-0.29-0.27-0.27c-0.19,0.02-0.16,0.23-0.2,0.36
			c-0.12,0.44-0.14,0.9-0.05,1.34c0.12,0.58,0.01,1.13-0.12,1.68c-0.13,0.58-0.43,0.71-0.95,0.43c-0.48-0.26-0.8-0.7-1.18-1.08
			c-0.15-0.15-0.3-0.32-0.45-0.47c-0.15-0.16-0.32-0.21-0.54-0.08c-0.44,0.27-0.66,0.01-0.78-0.38c-0.18-0.61-0.31-1.23-0.48-1.84
			c-0.08-0.25-0.17-0.5-0.29-0.74c-0.01-0.05-0.05-0.09-0.09-0.12c-0.04-0.03-0.1-0.04-0.15-0.03c-0.13,0.04-0.1,0.16-0.08,0.25
			c0.18,0.83,0.34,1.66,0.55,2.48c0.08,0.31,0.15,0.61,0.11,0.93c-0.03,0.25-0.16,0.45-0.43,0.48c-0.28,0.03-0.45-0.13-0.53-0.37
			c-0.12-0.31-0.2-0.64-0.25-0.97c-0.16-1.31-0.45-2.6-0.85-3.85c-0.07-0.2-0.15-0.39-0.41-0.35c-0.3,0.05-0.24,0.28-0.19,0.47
			c0.35,1.2,0.36,2.47,0.82,3.66c0.2,0.52,0.18,1.12,0.21,1.68c0,0.24-0.08,0.47-0.23,0.65c-0.06,0.08-0.13,0.14-0.22,0.18
			c-0.09,0.04-0.18,0.06-0.28,0.05c-0.1-0.01-0.19-0.04-0.27-0.09c-0.08-0.05-0.14-0.13-0.19-0.21c-0.09-0.18-0.13-0.38-0.13-0.58
			c0.04-0.99-0.12-1.96-0.29-2.93c-0.18-1.03-0.24-2.08-0.47-3.11c-0.02-0.13-0.06-0.26-0.11-0.38c-0.09-0.2-0.23-0.44-0.48-0.33
			c-0.25,0.11-0.01,0.31,0.02,0.47c0.2,1.2,0.42,2.4,0.61,3.6c0.11,0.69,0.19,1.39,0.28,2.08c0.04,0.35,0.08,0.7-0.03,1.04
			c-0.07,0.23-0.22,0.37-0.48,0.35c-0.24-0.01-0.4-0.16-0.41-0.37c-0.03-0.82-0.36-1.59-0.36-2.42c0-1.1-0.33-2.17-0.42-3.26
			c-0.06-0.85-0.44-1.65-0.39-2.51c0.01-0.3-0.09-0.6-0.28-0.84c-0.63-0.86-0.64-1.88-0.75-2.86c-0.07-0.6-0.15-1.19-0.5-1.7
			c-0.09-0.14-0.16-0.3-0.35-0.33c-0.17,0.14-0.02,0.27,0.02,0.39c0.24,0.68,0.54,1.36,0.49,2.12c0,0.17,0.03,0.33,0.1,0.49
			c0.22,0.59,0.37,1.16,0.24,1.8c-0.08,0.43,0.22,0.83,0.3,1.25c0.26,1.34,0.59,2.66,0.76,4.02c0.14,1.14,0.34,2.28,0.52,3.41
			c0.01,0.08,0.04,0.16,0.05,0.24c0.07,0.41-0.02,0.8-0.44,0.89c-0.41,0.09-0.55-0.33-0.6-0.65c-0.14-0.77-0.23-1.55-0.35-2.32
			c-0.27-1.74-0.27-3.51-0.69-5.24c-0.24-1.01-0.48-2.07-0.51-3.14c-0.01-0.4-0.12-0.78-0.33-1.12c-0.07,0.45-0.2,0.81-0.1,1.16
			c0.16,0.58,0.1,1.16,0.15,1.74c0.08,1.13,0.2,2.25,0.35,3.38c0.27,1.98,0.77,3.92,0.74,5.94c0,0.27,0.01,0.54-0.18,0.76
			c-0.11,0.14-0.22,0.32-0.43,0.31c-0.23-0.01-0.32-0.21-0.4-0.39c-0.24-0.55-0.25-1.14-0.29-1.72c-0.02-0.22,0.03-0.46-0.14-0.71
			c-0.23,0.33-0.17,0.64-0.12,0.94c0.06,0.43,0.08,0.87,0.04,1.3c-0.02,0.31-0.14,0.67-0.48,0.67c-0.38,0-0.4-0.36-0.43-0.68
			c-0.1-1.11-0.29-2.22-0.32-3.33c-0.05-1.9-0.56-3.76-0.48-5.67c0.03-0.68-0.37-1.31-0.27-2.02c-0.15,0.46-0.39,0.91-0.28,1.4
			c0.28,1.31,0.1,2.66,0.34,3.98c0.18,0.99,0.09,2,0.23,3.02c0.14,0.97,0.13,1.96-0.02,2.93c-0.03,0.19-0.1,0.36-0.31,0.41
			c-0.21,0.05-0.34-0.1-0.44-0.25c-0.15-0.23-0.26-0.48-0.19-0.76c0.24-0.94,0.12-1.86,0.03-2.81c-0.13-1.14-0.19-2.29-0.19-3.44
			c0-0.24,0.11-0.66-0.22-0.66c-0.25,0-0.18,0.41-0.18,0.65c-0.01,0.89,0.09,1.79-0.09,2.68c-0.08,0.48-0.06,0.97,0.08,1.44
			c0.17,0.63-0.1,1.22-0.14,1.83c-0.01,0.26-0.24,0.53-0.54,0.49c-0.28-0.04-0.21-0.34-0.22-0.54c-0.01-0.39,0-0.78,0-1.26
			c-0.38,0.22-0.43,0.48-0.48,0.74c-0.08,0.39-0.12,0.79-0.12,1.19c0.02,0.51-0.28,0.9-0.6,1.22c-0.48,0.47-1.19,0.23-1.38-0.41
			c-0.22-0.77-0.4-1.55-0.54-2.34c-0.02-0.21-0.11-0.41-0.26-0.56c-0.06,0.61-0.02,1.15-0.13,1.67c-0.04,0.18-0.05,0.36-0.09,0.54
			c-0.04,0.15-0.11,0.29-0.3,0.27c-0.17-0.02-0.25-0.16-0.28-0.31c-0.02-0.1-0.03-0.2-0.03-0.3c0.01-1.48-0.11-2.97,0.32-4.43
			c0.12-0.41-0.16-0.8-0.3-1.24c-0.07,0.27-0.22,0.55-0.2,0.81c0.06,0.78,0.06,1.56,0,2.34c-0.06,1-0.19,2-0.38,2.99
			c-0.04,0.2-0.15,0.44-0.43,0.4c-0.24-0.04-0.35-0.25-0.4-0.47c-0.05-0.26-0.04-0.53,0.03-0.79c0.2-1.03,0.22-2.09,0.38-3.11
			c0.24-1.48-0.06-3,0.48-4.44c0.2-0.54-0.08-1.07-0.44-1.57c-0.06,0.46-0.14,0.92-0.18,1.39c-0.16,2.1-0.27,4.21-0.67,6.29
			c-0.1,0.54-0.01,1.1-0.23,1.63c-0.04,0.09-0.05,0.2-0.09,0.29c-0.13,0.29-0.27,0.65-0.67,0.53c-0.4-0.12-0.33-0.48-0.3-0.8
			c0.07-0.75,0.46-1.42,0.54-2.18c0.03-0.23,0.07-0.46,0.1-0.69c0.16-1.28,0.17-2.58,0.42-3.86c0.14-0.74,0.1-1.52,0.16-2.28
			c0.07-0.87,0.23-1.72,0.38-2.57c0.09-0.49,0.16-0.98-0.04-1.55c-0.18,0.4-0.31,0.75-0.3,1.13c0.02,0.25-0.02,0.5-0.1,0.74
			c-0.07,0.16-0.15,0.31-0.36,0.27c-0.21-0.04-0.26-0.21-0.24-0.38c0.06-0.7,0.13-1.39,0.2-2.09c0.07-0.72,0.14-1.44,0.22-2.27
			c-0.36,0.27-0.3,0.56-0.34,0.81c-0.23,1.29-0.47,2.59-0.71,3.88c-0.28,1.48-0.72,2.94-0.88,4.45c-0.14,1.4-0.49,2.77-0.66,4.18
			c-0.08,0.74-0.56,1.44-0.88,2.16c-0.02,0.04-0.04,0.08-0.07,0.12c-0.03,0.03-0.07,0.06-0.12,0.08c-0.04,0.02-0.09,0.03-0.14,0.02
			c-0.05,0-0.09-0.01-0.14-0.03c-0.24-0.12-0.47-0.34-0.38-0.59c0.36-1.06-0.05-2.22,0.58-3.26c0.47-0.78,0.52-1.76,0.66-2.66
			c0.15-1.01,0.38-2,0.6-2.99c0.25-1.14,0.32-2.3,0.67-3.42c0.15-0.48,0.26-0.97,0.38-1.45c0.03-0.14,0.13-0.28,0.01-0.43
			c-0.25,0.05-0.25,0.27-0.32,0.45c-0.38,0.87-0.36,1.87-0.93,2.68c-0.04,0.07-0.06,0.16-0.05,0.24c0.11,1.23-0.46,2.33-0.63,3.51
			c-0.13,0.89-0.4,1.76-0.39,2.67c0,0.38-0.14,0.72-0.22,1.07c-0.27,1.16-0.56,2.31-0.86,3.46c-0.08,0.31-0.28,0.59-0.63,0.66
			c-0.25,0.05-0.38-0.16-0.5-0.35c-0.04-0.07-0.07-0.15-0.07-0.24c0-0.08,0.01-0.17,0.04-0.24c0.48-1.44,0.97-2.88,1.22-4.38
			c0.22-1.28,0.68-2.49,0.83-3.79c0.1-0.87,0.31-1.74,0.83-2.49c0.04-0.05,0.08-0.13,0.07-0.18c-0.12-0.58,0.12-1.11,0.24-1.72
			c-0.24,0.07-0.29,0.24-0.32,0.38c-0.24,0.97-0.51,1.93-0.77,2.9c-0.24,0.9-0.58,1.78-0.74,2.69c-0.28,1.63-0.95,3.16-1.18,4.8
			c-0.08,0.58-0.38,1.1-0.42,1.69c-0.01,0.22-0.19,0.39-0.35,0.54c-0.08,0.08-0.18,0.12-0.29,0.14c-0.11,0.01-0.22-0.01-0.31-0.06
			c-0.2-0.1-0.21-0.3-0.18-0.48c0.06-0.38,0.11-0.78,0.24-1.12c0.43-1.14,0.5-2.39,1.05-3.49c0.19-0.38,0.05-0.79,0.2-1.18
			c0.22-0.57,0.5-1.15,0.6-1.74c0.23-1.33,0.8-2.57,0.93-4.03c-0.4,0.57-0.67,1.1-0.7,1.69c-0.03,0.53-0.16,1.02-0.3,1.51
			c-0.33,1.13-0.62,2.28-1.1,3.36c-0.15,0.35-0.23,0.73-0.22,1.12c0.01,0.59-0.18,1.12-0.45,1.62c-0.23,0.44-0.52,0.86-0.63,1.36
			c-0.04,0.15-0.13,0.28-0.26,0.36c-0.14,0.1-0.29,0.18-0.46,0.09c-0.17-0.09-0.18-0.25-0.18-0.43c0-0.45,0.18-0.85,0.42-1.21
			c0.21-0.34,0.34-0.73,0.38-1.13c0.01-0.11,0.1-0.25-0.02-0.32c-0.14-0.08-0.25,0.05-0.34,0.15c-0.45,0.47-0.92,0.93-1.35,1.42
			c-0.45,0.51-0.85,1.07-1.29,1.59c-0.2,0.22-0.37,0.47-0.49,0.75c-0.14,0.34-0.43,0.55-0.73,0.73c-0.12,0.07-0.25,0.1-0.39,0.09
			c-0.14-0.01-0.26-0.06-0.37-0.15c-0.38-0.27-0.49-0.68-0.45-1.1c0.05-0.33,0.14-0.65,0.26-0.96c0.28-0.77,0.24-1.61,0.6-2.43
			c-0.26,0.06-0.27,0.24-0.33,0.37c-0.23,0.5-0.42,1.02-0.87,1.39c-0.17,0.14-0.35,0.29-0.58,0.18c-0.23-0.1-0.21-0.36-0.21-0.57
			c-0.02-0.19,0.04-0.37,0.15-0.52c0.94-1.1,1.36-2.48,2.06-3.71c0.18-0.32,0.35-0.65,0.5-0.98c0.23-0.49,0.23-0.95,0.02-1.49
			c-0.2-0.49-0.17-1.08-0.25-1.62c-0.02-0.14-0.01-0.34-0.18-0.38c-0.21-0.05-0.28,0.15-0.35,0.29c-0.76,1.5-1.89,2.76-2.83,4.15
			c-0.41,0.6-0.73,1.27-1.22,1.82c-0.24,0.27-0.5,0.45-0.82,0.21c-0.34-0.27-0.24-0.64,0.01-0.88c1.12-1.1,1.83-2.5,2.76-3.74
			c0.83-1.12,1.63-2.27,2.26-3.52c0.19-0.33,0.26-0.72,0.21-1.09c-0.39,0.47-0.78,0.8-1.01,1.22c-0.41,0.77-1,1.41-1.44,2.16
			c-0.84,1.42-2.05,2.57-2.97,3.94c-0.2,0.29-0.44,0.55-0.7,0.78c-0.26,0.24-0.59,0.35-0.9,0.08c-0.23-0.2-0.18-0.73,0.1-0.94
			c0.68-0.54,1.27-1.19,1.75-1.92c0.87-1.26,1.91-2.38,2.83-3.6c1.01-1.32,1.9-2.72,2.9-4.03c0.53-0.7,0.9-1.51,1.41-2.23
			c0.28-0.39,0.65-0.71,0.82-1.18c0.04-0.11,0.11-0.21-0.02-0.39c-0.39,0.42-0.75,0.87-1.08,1.34c-0.6,0.83-1.07,1.76-1.8,2.51
			c-0.38,0.39-0.77,0.78-0.98,1.31c-0.16,0.41-0.56,0.66-0.88,0.95c-0.95,0.84-1.44,2.05-2.35,2.91c-0.53,0.5-1.12,0.98-1.5,1.61
			c-0.54,0.88-1.28,1.58-1.97,2.32c-0.09,0.1-0.19,0.19-0.3,0.27c-0.22,0.15-0.48,0.33-0.72,0.1c-0.12-0.1-0.2-0.24-0.22-0.39
			s0-0.31,0.07-0.44c0.05-0.11,0.12-0.2,0.2-0.28c1.45-1.43,2.76-2.99,4.08-4.53c0.68-0.79,1.25-1.67,1.94-2.46
			c1.47-1.66,2.83-3.41,4.09-5.24c0.28-0.41,0.6-0.78,0.93-1.27c-0.44,0.11-0.64,0.41-0.85,0.66c-0.5,0.59-1,1.16-1.65,1.6
			c-0.1,0.06-0.18,0.15-0.24,0.25c-0.25,0.83-0.98,1.29-1.45,1.95c-0.7,1-1.53,1.9-2.22,2.91c-0.62,0.9-1.42,1.64-2.07,2.5
			c-0.58,0.78-1.31,1.42-1.9,2.19c-0.32,0.42-0.71,0.79-1.09,1.17c-0.24,0.24-0.53,0.32-0.81,0.09c-0.28-0.23-0.09-0.48,0.02-0.73
			c0.26-0.57,0.77-0.92,1.2-1.33c1.04-0.99,2.06-2.01,2.9-3.16c0.91-1.25,2.11-2.27,2.81-3.69c0.25-0.5,0.76-0.84,1.16-1.23
			c0.02-0.01,0.03-0.03,0.05-0.04c0.01-0.02,0.02-0.04,0.03-0.06c0-0.02,0.01-0.04,0-0.06c0-0.02-0.01-0.04-0.02-0.06
			c-0.33,0.27-0.69,0.48-0.94,0.79c-0.82,0.97-1.59,1.97-2.39,2.95c-0.18,0.24-0.38,0.47-0.6,0.67c-1.07,0.86-1.73,2.06-2.61,3.08
			c-0.56,0.65-1.14,1.26-1.82,1.77c-0.25,0.19-0.53,0.34-0.8,0.03c-0.25-0.29-0.06-0.53,0.12-0.75c0.3-0.36,0.65-0.67,1.03-0.94
			c0.5-0.36,0.75-0.97,1.21-1.38c0.41-0.37,0.75-0.8,1.12-1.21c0.1-0.11,0.24-0.26,0.12-0.39c-0.15-0.16-0.26,0.04-0.36,0.13
			c-0.91,0.8-1.9,1.51-2.88,2.24c-0.69,0.52-1.35,1.08-2.01,1.65c-0.4,0.35-0.84,0.3-1.28,0.21c-0.33-0.07-0.46-0.45-0.24-0.83
			c0.56-0.98,0.88-2.09,1.58-3.01c0.09-0.12,0.29-0.29,0.13-0.43c-0.19-0.17-0.32,0.09-0.45,0.19c-0.28,0.21-0.52,0.47-0.81,0.67
			c-0.25,0.17-0.55,0.24-0.77-0.04c-0.2-0.26-0.07-0.54,0.14-0.72c0.97-0.82,1.89-1.69,2.91-2.44c0.24-0.17,0.46-0.34,0.52-0.64
			c0.01-0.03-0.05-0.11-0.06-0.11c-0.28,0.04-0.49,0.22-0.67,0.4c-0.89,0.93-1.85,1.79-2.87,2.57c-0.15,0.13-0.32,0.24-0.51,0.31
			c-0.26,0.09-0.52,0.12-0.67-0.14c-0.08-0.12-0.12-0.26-0.1-0.41c0.01-0.14,0.07-0.28,0.18-0.38c0.01-0.01,0.02-0.03,0.04-0.03
			c1.1-0.51,1.74-1.64,2.83-2.19c0.42-0.21,0.76-0.6,1.09-0.95c0.24-0.26,0.52-0.48,0.73-0.75c0.5-0.66,1.12-1.19,1.75-1.7
			c0.11-0.09,0.28-0.21,0.13-0.37c-0.13-0.13-0.3-0.05-0.4,0.05c-0.3,0.27-0.57,0.56-0.82,0.87c-0.79,1-1.86,1.68-2.87,2.39
			c-1.02,0.71-1.99,1.53-3.09,2.14c-0.12,0.08-0.26,0.14-0.41,0.17c-0.28,0.02-0.5-0.06-0.64-0.3c-0.14-0.24,0.05-0.42,0.19-0.58
			c0.38-0.41,0.88-0.66,1.36-0.93c0.45-0.25,0.89-0.53,1.3-0.84c0.87-0.69,1.83-1.26,2.68-1.99c0.81-0.7,1.55-1.52,2.49-2.08
			c0.21-0.12,0.58-0.26,0.43-0.55c-0.08-0.16-0.4,0.1-0.6,0.21c-1.74,0.98-3.16,2.39-4.79,3.51c-0.92,0.63-1.81,1.32-2.86,1.75
			c-0.26,0.11-0.5,0.25-0.69-0.08c-0.08-0.12-0.11-0.27-0.08-0.41c0.03-0.14,0.11-0.27,0.23-0.35c0.27-0.22,0.6-0.37,0.88-0.57
			c0.93-0.67,2-1.09,2.88-1.86c0.85-0.74,1.7-1.49,2.69-2.06c0.16-0.07,0.29-0.2,0.36-0.36c-0.2-0.12-0.32,0.01-0.45,0.1
			c-1.52,1.03-3,2.12-4.58,3.06c-0.53,0.31-1.11,0.53-1.63,0.87c-0.29,0.19-0.62,0.06-0.78-0.23c-0.18-0.32,0.12-0.5,0.34-0.62
			c1.55-0.85,3.01-1.84,4.49-2.82c1.59-1.04,3.19-2.06,4.78-3.11c0.6-0.39,1.16-0.85,1.81-1.16c0.12-0.06,0.27-0.13,0.22-0.29
			c-0.05-0.16-0.23-0.12-0.35-0.11c-0.55,0.04-0.95,0.38-1.37,0.68c-1.31,0.9-2.54,1.93-3.92,2.73c-0.04,0.03-0.09,0.05-0.13,0.07
			c-1.05,0.14-1.67,0.97-2.46,1.53c-0.41,0.3-0.88,0.47-1.31,0.74c-0.76,0.48-1.42,1.1-2.21,1.55c-0.06,0.04-0.11,0.08-0.16,0.12
			c-0.28,0.2-0.59,0.27-0.9,0.12c-0.11-0.05-0.2-0.13-0.25-0.24c-0.06-0.11-0.07-0.23-0.05-0.34c0.02-0.16,0.1-0.31,0.2-0.43
			c0.11-0.12,0.25-0.2,0.41-0.24c0.47-0.13,0.9-0.35,1.29-0.64c1.04-0.8,2.24-1.36,3.34-2.07c1.25-0.81,2.49-1.65,3.72-2.48
			c0.09-0.06,0.24-0.13,0.16-0.27c-0.07-0.14-0.2-0.06-0.32-0.03c-0.81,0.21-1.51,0.65-2.18,1.11c-1.1,0.74-2.12,1.64-3.3,2.24
			c-1.03,0.52-2.06,1.03-3.04,1.63c-0.16,0.08-0.34,0.15-0.52,0.19c-0.33,0.1-0.61,0.02-0.74-0.31c-0.13-0.34,0.09-0.57,0.37-0.67
			c0.71-0.24,1.3-0.69,1.95-1.02c0.08-0.03,0.15-0.08,0.21-0.14c0.06-0.06,0.1-0.13,0.13-0.21c-0.7,0.35-1.33,0.65-1.95,0.96
			c-0.16,0.08-0.31,0.2-0.48,0.27c-0.28,0.11-0.55,0.05-0.71-0.2c-0.16-0.25-0.03-0.48,0.18-0.66c0.1-0.08,0.21-0.16,0.44-0.32
			c-0.62-0.06-1.11-0.11-1.61-0.15c-0.43-0.04-0.87-0.06-1.24-0.33c-0.44-0.33-0.43-0.66,0.05-0.92c0.41-0.22,0.82-0.44,1.3-0.5
			c0.17-0.02,0.41-0.08,0.41-0.3c0-0.22-0.23-0.2-0.39-0.23c-0.24-0.05-0.48-0.11-0.5-0.4c-0.02-0.32,0.2-0.5,0.46-0.58
			c0.49-0.16,1-0.29,1.5-0.42c0.08-0.02,0.17-0.01,0.25-0.04c0.23-0.07,0.53-0.22,0.45-0.44c-0.1-0.29-0.4-0.11-0.6-0.01
			c-0.69,0.33-1.43,0.55-2.18,0.67c-0.3,0.04-0.66,0-0.68-0.4c-0.02-0.39,0.26-0.62,0.62-0.67c1.19-0.15,2.25-0.75,3.44-0.9
			c0.16-0.02,0.4-0.08,0.33-0.29c-0.07-0.23-0.31-0.13-0.48-0.09c-1.25,0.3-2.5,0.6-3.74,0.9c-0.12,0.03-0.25,0.03-0.37,0.01
			c-0.12-0.03-0.24-0.09-0.33-0.17c-0.18-0.14-0.21-0.33-0.19-0.54c0.03-0.23,0.17-0.35,0.38-0.41c0.77-0.2,1.56-0.35,2.36-0.44
			c1.19-0.15,2.37-0.38,3.51-0.8c0.14-0.05,0.36-0.1,0.33-0.25c-0.03-0.22-0.28-0.15-0.42-0.13c-0.84,0.15-1.68,0.3-2.5,0.5
			c-0.78,0.2-1.55,0.4-2.36,0.47c-0.16,0.02-0.33,0.01-0.5,0.02c-0.4,0.01-0.67-0.18-0.68-0.58c-0.01-0.42,0.39-0.54,0.68-0.49
			c0.56,0.1,1.06-0.12,1.59-0.15c0.12,0,0.23-0.03,0.34-0.08c0.83-0.47,1.76-0.48,2.67-0.53c0.24-0.01,0.68-0.02,0.64-0.21
			c-0.06-0.31-0.46-0.18-0.68-0.1c-1.02,0.36-2.1,0.1-3.13,0.33c-0.65,0.14-1.26,0.44-1.95,0.4c-0.41-0.02-0.75-0.1-0.79-0.57
			c-0.04-0.47,0.29-0.62,0.65-0.67c0.56-0.09,1.13-0.14,1.7-0.15c1.29-0.01,2.56-0.24,3.84-0.35c1.28-0.11,2.51-0.4,3.78-0.5
			c0.7-0.05,1.41-0.27,2.1-0.45c0.24-0.07,0.49-0.11,0.74-0.12c0.28-0.01,0.56-0.11,0.77-0.3c-0.29-0.15-0.53,0-0.76,0
			c-1.13,0.02-2.21,0.3-3.31,0.47c-1.23,0.2-2.48,0.3-3.73,0.43c-1.35,0.15-2.74,0.04-4.03,0.63c-0.64,0.3-1.38,0.18-2.09,0.15
			c-0.22-0.01-0.39-0.11-0.44-0.34c-0.06-0.28-0.03-0.54,0.22-0.72c0.11-0.09,0.24-0.15,0.38-0.19c0.14-0.03,0.28-0.03,0.42,0
			c0.43,0.09,0.87,0.05,1.28-0.11c0.72-0.27,1.48-0.23,2.23-0.32c1.74-0.2,3.47-0.44,5.22-0.54c0.9-0.05,1.79-0.31,2.67-0.56
			c-0.64,0.04-1.28,0.09-1.93,0.12c-2.07,0.09-4.12,0.47-6.18,0.6c-0.99,0.06-2,0.14-3,0.08c-0.64-0.04-1.02-0.25-1.02-0.6
			c0-0.38,0.52-0.66,1.12-0.59c2.12,0.25,4.19-0.19,6.29-0.34c0.03,0,0.05-0.03,0.1-0.07c-1.48,0-2.96-0.15-4.38,0.05
			c-0.97,0.14-1.85-0.12-2.78-0.08c-0.06,0.01-0.12,0-0.18-0.02c-0.06-0.02-0.11-0.05-0.15-0.09s-0.08-0.09-0.1-0.14
			c-0.02-0.05-0.04-0.11-0.04-0.17c-0.02-0.27,0.16-0.37,0.38-0.45c0.26-0.09,0.53-0.16,0.79-0.09c1.27,0.33,2.53-0.08,3.79-0.06
			c0.36,0.01,0.72-0.05,1.09,0c1.05,0.15,2.08-0.07,3.11-0.23v-0.14c-0.35,0-0.71,0-1.06,0c-1.32,0.02-2.64,0.01-3.93-0.37
			c-0.32-0.1-0.67-0.05-1,0.03c-0.78,0.17-1.56,0.15-2.35,0.15c-0.4,0-0.65-0.16-0.63-0.6c0.02-0.43,0.35-0.55,0.67-0.49
			c1.17,0.22,2.34-0.05,3.5-0.02c0.74,0.02,1.46,0.16,2.2,0.1c0.17-0.01,0.36,0.03,0.63-0.14c-0.75-0.19-1.4-0.38-2.06-0.52
			c-0.24-0.05-0.42,0.2-0.65,0.24c-1.35,0.2-2.7,0.27-4-0.27c-0.34-0.14-0.62-0.29-0.42-0.73c0.1-0.21-0.06-0.26-0.21-0.3
			c-0.42-0.11-0.84-0.25-1.28-0.26c-0.44-0.01-0.65-0.26-0.73-0.63c-0.07-0.36,0.23-0.49,0.49-0.61c1.21-0.57,2.49-0.95,3.75-1.38
			c0.14-0.05,0.36-0.04,0.36-0.21c-0.01-0.22-0.25-0.17-0.4-0.18c-0.52-0.02-1.04,0-1.55-0.1c-0.22-0.04-0.42-0.1-0.59-0.25
			c-0.13-0.12-0.22-0.25-0.17-0.44c0.02-0.09,0.07-0.17,0.15-0.23c0.08-0.06,0.17-0.08,0.26-0.07c0.8,0.01,1.6-0.1,2.4,0.11
			c0.54,0.13,1.09,0.19,1.64,0.18c0.35,0,0.71-0.01,1.04,0.11c0.45,0.16,0.86-0.03,1.28-0.12c0.1-0.02,0.22-0.04,0.21-0.17
			c-0.01-0.13-0.14-0.14-0.23-0.15c-0.65-0.1-1.29-0.18-1.94-0.28c-0.86-0.13-1.74-0.07-2.57-0.4c-0.3-0.12-0.68-0.19-0.58-0.6
			c0.1-0.41,0.47-0.42,0.82-0.3c1.14,0.38,2.35,0.31,3.52,0.49c0.85,0.13,1.72,0.22,2.57,0.37c0.53,0.08,1.07,0.07,1.59-0.05
			c-0.63-0.17-1.12-0.67-1.87-0.53c-0.9,0.17-1.79-0.16-2.68-0.27c-1.28-0.16-2.54-0.41-3.78-0.76c-0.22-0.06-0.46-0.04-0.7-0.06
			c-0.15,0-0.3-0.05-0.42-0.14c-0.12-0.09-0.22-0.21-0.27-0.36c-0.13-0.33-0.03-0.58,0.36-0.59c0.42-0.03,0.84,0.01,1.24,0.12
			c1.52,0.47,3.08,0.77,4.66,0.88c0.74,0.04,1.45,0.26,2.07,0.65c0.03,0.03,0.07,0.05,0.11,0.05c0.04,0.01,0.08,0,0.12-0.01
			c0.59-0.32,1.17-0.08,1.76,0.02c0.54,0.09,1.08,0.22,1.62,0.32c0.11,0.03,0.23,0.03,0.35,0.02c0.18-0.03,0.43-0.04,0.44-0.25
			s-0.24-0.2-0.39-0.23c-0.57-0.11-1.15-0.21-1.73-0.26c-0.61-0.07-1.22-0.17-1.82-0.31c-2.07-0.44-4.15-0.85-6.23-1.29
			c-0.73-0.16-1.46-0.36-2.18-0.55c-0.3-0.08-0.37-0.3-0.37-0.58c0.01-0.3,0.2-0.39,0.47-0.41c0.72-0.04,1.37,0.27,2.05,0.43
			c1.53,0.36,3.05,0.75,4.6,0.98c1.12,0.17,2.21,0.48,3.32,0.73c0.23,0.05,0.45,0.14,0.68,0.15c1.15,0.06,2.28,0.3,3.42,0.47
			c0.32,0.05,0.65,0.09,0.98-0.07c-0.54-0.05-1.05-0.26-1.58-0.28c-0.55-0.03-1.1-0.13-1.62-0.32c-1.28-0.43-2.63-0.58-3.95-0.89
			c-0.55-0.13-1.09-0.3-1.64-0.44c-1.33-0.32-2.66-0.64-3.99-0.96c-0.55-0.13-1.11-0.26-1.66-0.39c-0.08-0.01-0.16-0.04-0.24-0.08
			c-0.28-0.18-0.54-0.38-0.38-0.77c0.15-0.37,0.44-0.4,0.79-0.29c1.67,0.54,3.4,0.83,5.08,1.29c0.03,0.01,0.06-0.02,0.13-0.04
			c-0.26-0.3-0.63-0.37-0.95-0.5c-0.9-0.35-1.85-0.58-2.75-0.95c-0.43-0.18-0.94-0.19-1.38-0.4c-0.12-0.06-0.26-0.09-0.35-0.19
			c-0.16-0.17-0.3-0.38-0.15-0.63c0.14-0.23,0.35-0.29,0.6-0.2c1.39,0.51,2.84,0.86,4.21,1.42c0.24,0.1,0.53,0.08,0.77,0.19
			c2.12,0.89,4.39,1.22,6.58,1.85c0.25,0.09,0.53,0.08,0.77-0.02c-0.26-0.31-0.6-0.29-0.91-0.32c-0.18-0.01-0.36-0.06-0.52-0.15
			c-0.16-0.09-0.3-0.21-0.41-0.36c-0.05-0.05-0.07-0.11-0.08-0.18c-0.01-0.07,0-0.13,0.04-0.19c0.03-0.06,0.08-0.11,0.14-0.14
			c0.06-0.03,0.13-0.04,0.2-0.02c0.28,0.03,0.56,0.08,0.84-0.08C193.29,16.35,192.01,15.97,190.69,15.87L190.69,15.87z
			 M231.77,45.53c0.35,0,0.63-0.17,0.92-0.36c0.89-0.58,1.71-1.27,2.69-1.72c0.64-0.3,1.03-0.92,1.5-1.44
			c-0.33,0.04-0.58,0.2-0.83,0.36c-0.37,0.26-0.75,0.49-1.16,0.69c-0.24,0.11-0.6,0.17-0.74-0.17c-0.14-0.32,0.13-0.49,0.38-0.61
			c0.59-0.28,1.13-0.63,1.62-1.06c0.2-0.18,0.38-0.39,0.6-0.52c0.96-0.57,1.65-1.44,2.56-2.07c0.95-0.66,1.56-1.66,2.07-2.71
			c0.24-0.5,0.42-1.01,0.66-1.5c0.1-0.21,0.28-0.41,0.56-0.32c0.25,0.09,0.24,0.34,0.23,0.56c-0.01,0.13-0.04,0.26-0.09,0.38
			c-0.6,1.17-1.42,2.2-2.05,3.37c-0.42,0.79-1.18,1.36-1.81,2c-0.21,0.22-0.42,0.54-0.17,0.73c0.27,0.21,0.4-0.21,0.58-0.38
			c0.08-0.07,0.1-0.2,0.15-0.31c0.07-0.18,0.18-0.35,0.35-0.41c0.41-0.16,0.68-0.47,0.95-0.79c0.17-0.21,0.38-0.31,0.6-0.12
			c0.23,0.19,0.34,0.05,0.48-0.12c0.57-0.68,0.99-1.46,1.4-2.25c0.05-0.09,0.15-0.19,0.03-0.31c-0.03,0.01-0.07,0.02-0.09,0.04
			c-0.15,0.17-0.21,0.55-0.55,0.35c-0.33-0.19-0.11-0.46,0-0.7c0.36-0.79,0.68-1.6,0.95-2.42c0.25-0.79,0.29-1.64,0.69-2.4
			c0.21-0.4,0.21-0.86,0.22-1.32c0.01-0.57,0.05-1.13,0.12-1.7c0.04-0.31,0.16-0.64,0.56-0.55c0.33,0.08,0.35-0.11,0.36-0.3
			c0.03-0.88,0.25-1.75,0.07-2.64c-0.09-0.44-0.12-0.89-0.1-1.34c0.03-0.88-0.25-1.71-0.45-2.55c-0.04-0.15-0.08-0.33-0.33-0.41
			c0.08,0.61,0.15,1.18,0.24,1.75c0.05,0.4,0.07,0.8,0.03,1.2c-0.01,0.14-0.07,0.27-0.23,0.28c-0.14,0-0.2-0.1-0.24-0.22
			c-0.07-0.29-0.13-0.59-0.21-0.88c-0.36-1.28-0.38-2.64-0.87-3.9c-0.09-0.23-0.21-0.48-0.01-0.71c0.23-0.27,0.43,0.03,0.7,0.12
			c-0.25-0.95-0.79-1.67-1.13-2.48c-0.3-0.71-0.86-1.26-1.27-1.9c-0.35-0.55-0.65-1.13-1.05-1.64c-0.99-1.25-1.98-2.5-3.36-3.41
			c-1.45-0.95-2.64-2.29-4.38-2.81c-1.1-0.33-2.01-1.14-3.17-1.34c-0.74-0.13-1.47-0.26-2.18-0.53c-0.85-0.32-1.78-0.04-2.64-0.22
			c-1.74-0.37-3.43,0.01-5.12,0.18c-0.66,0.07-1.36,0.1-1.98,0.32c-1.68,0.59-3.41,1.06-4.98,1.94c-1.34,0.75-2.58,1.66-3.85,2.51
			c-0.92,0.62-1.61,1.5-2.34,2.31c-0.83,0.92-1.61,1.9-2.22,3.01c-0.62,1.1-1.29,2.19-1.75,3.39c-0.68,1.83-1.33,3.64-1.47,5.63
			c-0.12,1.62-0.15,3.24-0.2,4.86c-0.04,1.34,0.38,2.63,0.63,3.93c0.19,0.98,0.64,1.89,0.97,2.83c0.65,1.85,1.78,3.42,2.8,5.06
			c0.45,0.72,1.21,1.24,1.71,1.93c1.11,1.5,2.59,2.6,4.12,3.54c1.53,0.94,3.07,1.85,4.84,2.37c1.73,0.5,3.42,1.1,5.24,1.22
			c2.12,0.14,4.24,0.18,6.33-0.32c0.44-0.11,0.92-0.09,1.32-0.28c0.98-0.47,2.07-0.61,3.04-1.09c0.64-0.32,1.51-0.3,1.71-1.24
			c0.03-0.16,0.25-0.21,0.39-0.29c0.42-0.23,0.86-0.43,1.19-0.79c-0.87,0.29-1.59,0.88-2.41,1.26c-0.65,0.3-1.25,0.71-1.98,0.81
			c-0.26,0.04-0.58,0.12-0.68-0.23c-0.1-0.35,0.16-0.45,0.42-0.57c0.39-0.18,0.86-0.2,1.15-0.58L231.77,45.53z M238.25,63.42
			c0.1-0.44-0.11-0.69-0.23-0.95c-0.31-0.72-0.63-1.46-1.12-2.06c-0.85-1.03-1.89-1.88-2.55-3.1c-0.46-0.85-0.58-1.68-0.5-2.57
			c0.11-1.24,0.07-2.44-0.64-3.52c-0.24-0.36-0.5-0.7-0.73-1.07c-0.38-0.61-1.04-0.84-1.7-0.52c-0.57,0.28-1.16,0.47-1.75,0.71
			c-0.18,0.07-0.22,0.16-0.09,0.29c0.38,0.38,0.65,0.85,1.04,1.22c0.92,0.88,1.41,2,1.7,3.21c0.19,0.79,0.2,1.63,0.45,2.4
			c0.45,1.36,1.35,2.34,2.72,2.92c0.83,0.35,1.68,0.69,2.31,1.44C237.55,62.29,237.81,62.85,238.25,63.42L238.25,63.42z M185.9,10.6
			l-0.02,0.15c0.28,0.1,0.55,0.28,0.83,0.28c1.13,0.03,2.24,0.29,3.39,0.24c1.15-0.05,2.34-0.02,3.42,0.55
			c0.18,0.09,0.37,0.16,0.57,0.19c1.01,0.18,1.81,0.77,2.59,1.36c0.84,0.63,1.72,1.1,2.74,1.37c0.63,0.16,1.27,0.03,1.89,0.21
			c0.47,0.14,0.92-0.06,1.09-0.52c0.1-0.23,0.22-0.45,0.35-0.65c0.19-0.32,0.47-0.69,0.2-1.06c-0.32-0.43-0.71-0.76-1.29-0.88
			c-0.85-0.16-1.68,0.16-2.54,0.05c-1.17-0.16-2.29-0.4-3.35-0.94c-1.43-0.72-2.92-1.2-4.57-0.91c-0.85,0.15-1.72,0.16-2.57,0.4
			C187.74,10.68,186.81,10.73,185.9,10.6z M251.82,27.49c0.88,0.02,1.62,0.04,2.35,0.07c0.86,0.03,1.73,0.29,2.59,0.05
			c0.45-0.13,0.93-0.15,1.39-0.08c1.46,0.24,2.92,0.28,4.4,0.27c0.27,0,0.53,0.03,0.8,0.02c0.05,0,0.1-0.01,0.14-0.04
			c0.04-0.03,0.07-0.08,0.07-0.13c0.01-0.1-0.09-0.13-0.17-0.16c-0.27-0.09-0.54-0.16-0.83-0.2c-1.01-0.21-2.05-0.27-3.06-0.52
			c-1.52-0.39-3.03-0.83-4.59-1.07c-1.56-0.24-3.16-0.29-4.67-0.83c-0.88-0.31-1.84-0.28-2.71-0.62c-0.26-0.1-0.41,0.06-0.39,0.3
			c0.11,0.89,0.12,1.79,0.14,2.68c0.01,0.33,0.15,0.46,0.48,0.25c0.19-0.12,0.42-0.08,0.63-0.1
			C249.61,27.25,250.78,27.65,251.82,27.49z M250.29,55.67c-0.04-0.2-0.18-0.32-0.32-0.44c-0.49-0.4-0.99-0.79-1.47-1.2
			c-1.52-1.27-2.6-2.94-3.94-4.39c-0.73-0.79-1.46-1.59-2.16-2.41c-0.62-0.73-1.31-1.42-1.92-2.16c-0.47-0.57-1.07-0.59-1.67-0.06
			c-0.49,0.42-0.8,1.03-1.42,1.32c-0.46,0.22-0.47,0.41-0.04,0.7c1.28,0.87,2.58,1.71,3.86,2.58c0.4,0.27,0.85,0.45,1.24,0.75
			c1.03,0.79,2.08,1.56,3.19,2.26c0.65,0.41,1.29,0.81,1.94,1.22c0.62,0.39,1.16,0.89,1.74,1.34c0.24,0.19,0.45,0.39,0.69,0.57
			C250.08,55.82,250.24,55.89,250.29,55.67z M259.95,12.24c-0.8-0.14-1.62-0.13-2.33,0.13c-0.86,0.31-1.66,0.7-2.6,0.73
			c-0.69,0.03-1.37,0.1-2.05-0.01c-0.97-0.16-1.94-0.44-2.91-0.48c-1.5-0.05-3.03,0.01-4.36,0.85c-1.24,0.78-1.55,1.03-0.82,2.29
			c0.02,0.03,0.04,0.06,0.05,0.09c0.5,0.98,0.48,0.94,1.44,0.41c0.88-0.49,1.71-1.09,2.75-1.28c0.89-0.17,1.8-0.2,2.7-0.08
			c1.9,0.29,3.44-0.6,5.02-1.36c0.54-0.26,1.01-0.64,1.6-0.82C258.95,12.58,259.49,12.53,259.95,12.24L259.95,12.24z M248.62-0.99
			l-0.1-0.11c-0.08,0.01-0.16,0.03-0.23,0.06c-1.16,0.56-2.14,1.4-3.16,2.18c-0.73,0.55-1.48,1.08-2.21,1.63
			c-1.07,0.8-2.15,1.63-3.29,2.36c-0.46,0.29-0.96,0.54-1.37,0.91s-0.47,0.74-0.1,1.07c0.55,0.48,1.08,0.98,1.58,1.52
			c0.33,0.36,0.62,0.32,0.93-0.05c0.42-0.5,0.84-0.99,1.23-1.51c0.7-0.95,1.59-1.75,2.32-2.69c0.99-1.28,2.03-2.52,3.08-3.74
			C247.76,0.1,248.18-0.45,248.62-0.99z M201.04,35.48c0-0.31-0.13-0.54-0.26-0.77c-0.37-0.65-0.58-1.35-0.74-2.07
			c-0.07-0.29,0.02-0.71-0.37-0.8c-0.41-0.1-0.6,0.28-0.82,0.55c-0.07,0.09-0.13,0.19-0.18,0.3c-0.87,1.71-2.18,2.97-4.02,3.53
			c-1.72,0.52-3.27,1.48-4.49,2.79c-1.09,1.15-1.95,2.48-2.97,3.69c-0.08,0.09-0.22,0.23-0.07,0.34c0.13,0.1,0.23-0.06,0.34-0.14
			c0.38-0.28,0.64-0.68,0.94-1.03c0.79-0.93,1.83-1.59,2.71-2.43c0.59-0.56,1.26-1.13,2.05-1.42c1.45-0.53,2.88-1.14,4.49-1.12
			c1.07,0.01,2.07-0.31,3.01-0.81C200.9,35.95,201.07,35.77,201.04,35.48z M208.05,63.86c0.06-0.08,0.11-0.14,0.16-0.2
			c0.41-0.47,0.41-1.12,0.74-1.63c0.22-0.33,0.5-0.65,0.51-1.07c0.02-0.73,0.13-1.5-0.03-2.19c-0.25-1.06-0.08-2.04,0.2-3.05
			c0.28-1.07,0.86-2.04,1.67-2.78c0.45-0.4,0.81-0.88,1.08-1.42c0.37-0.76,0.38-1.58,0.57-2.37c0.15-0.63-0.13-0.99-0.73-1.27
			c-0.29-0.13-0.6-0.19-0.86-0.4c-0.22-0.18-0.38-0.04-0.44,0.18c-0.04,0.18-0.05,0.36-0.04,0.55c0,1.08-0.38,2.06-0.85,3
			c-0.47,0.94-1.18,1.74-1.6,2.71c-0.22,0.5-0.59,0.94-0.57,1.53c0.05,1.37,0.35,2.71,0.67,4.03c0.16,0.66,0.3,1.29,0.11,1.96
			c-0.18,0.61-0.25,1.24-0.54,1.82C208.02,63.41,207.92,63.61,208.05,63.86z M259.69,45.38c0.15,0.01,0.27,0.06,0.31-0.07
			c0.05-0.17-0.11-0.24-0.22-0.29c-1.07-0.46-2.11-1.04-3.26-1.26c-1.45-0.28-2.73-0.7-3.86-1.78c-1.3-1.25-2.54-2.55-3.82-3.81
			c-0.74-0.73-1.56-1.32-2.56-1.59c-0.75-0.2-1.17,0.05-1.45,0.76c-0.18,0.47-0.36,0.93-0.69,1.32c-0.1,0.12-0.23,0.27-0.12,0.45
			c0.1,0.15,0.27,0.12,0.42,0.1c0.79-0.1,1.52,0.19,2.25,0.41c1.58,0.49,2.86,1.52,4.06,2.59c1.2,1.07,2.57,1.56,4.09,1.8
			c1.48,0.24,2.96,0.49,4.32,1.19C259.34,45.27,259.51,45.34,259.69,45.38z M222.62,65.95c-0.19-0.99-0.02-1.99-0.07-2.98
			c-0.13-2.39,0.16-4.79-0.19-7.18c-0.21-1.41-0.08-2.86-0.12-4.28c-0.02-0.68-0.17-0.89-0.83-0.94c-0.57-0.04-1.14-0.02-1.71-0.02
			c-0.31,0-0.44,0.2-0.37,0.46c0.24,0.87,0.33,1.77,0.57,2.63c0.23,0.83,0.44,1.67,0.6,2.51c0.2,1.02,0.24,2.08,0.47,3.1
			c0.38,1.7,0.59,3.45,1.22,5.09C222.4,64.86,222.18,65.47,222.62,65.95z M231.02,3.24c0.38-0.04,0.63-0.15,0.8-0.49
			c0.34-0.69,0.56-1.43,0.97-2.08c0.43-0.69,0.7-1.47,1.32-2.05c0.8-0.74,1.32-1.74,1.47-2.82c0.14-0.92,0.21-1.86,0.21-2.79
			c-0.03-1.67,0.35-3.23,1.25-4.66c0.09-0.14,0.21-0.32,0.02-0.44c-0.21-0.14-0.34,0.04-0.43,0.2c-0.18,0.32-0.35,0.65-0.54,0.96
			c-0.55,0.88-0.86,1.88-0.9,2.92c-0.03,0.67-0.06,1.33-0.11,2c-0.04,0.71-0.3,1.38-0.76,1.92c-0.56,0.66-1.19,1.26-1.87,1.8
			c-0.61,0.48-1.31,0.87-1.75,1.55c-0.57,0.88-0.83,1.96-1.63,2.71c-0.16,0.15-0.29,0.45,0.01,0.6
			C229.71,2.89,230.39,3.05,231.02,3.24z M185.42,25.8c0.6,0,1.14,0.19,1.66,0.07c0.87-0.21,1.74-0.21,2.62-0.25
			c2.22-0.09,4.44-0.21,6.66-0.24c0.77-0.01,1.54-0.06,2.3-0.09c0.33-0.01,0.5-0.16,0.57-0.5c0.14-0.7,0.21-1.41,0.21-2.13
			c0-0.7-0.07-0.78-0.77-0.58c-0.66,0.19-1.29,0.48-1.97,0.58c-1.73,0.25-3.35,0.88-5.02,1.35c-1.8,0.5-3.56,1.16-5.43,1.42
			C185.99,25.46,185.7,25.51,185.42,25.8L185.42,25.8z M221.88-12.15c-0.11,1.1-0.5,2.06-0.62,3.06c-0.22,1.93-0.51,3.85-0.89,5.76
			c-0.32,1.61-0.81,3.2-0.99,4.84c-0.05,0.41,0.06,0.61,0.47,0.62c0.57,0.02,1.12-0.11,1.68-0.23c0.56-0.12,0.7-0.42,0.72-0.95
			c0.04-1.47-0.18-2.93-0.1-4.4c0.05-1.04-0.22-2.06-0.06-3.09c0.1-0.69,0.1-1.4,0.01-2.1c-0.13-0.93-0.18-1.85,0-2.78
			C222.13-11.64,222.18-11.88,221.88-12.15L221.88-12.15z M195.96-2.33c-0.01,0.24,0.15,0.31,0.26,0.42c0.91,0.88,2.04,1.5,2.94,2.4
			c1.03,1.04,2.1,2.04,3.13,3.08c1.41,1.42,2.89,2.76,4.3,4.18c0.17,0.17,0.34,0.33,0.61,0.2c0.58-0.27,1.1-0.65,1.52-1.13
			c0.15-0.16,0.22-0.37,0.04-0.54c-0.26-0.28-0.56-0.53-0.87-0.75c-0.72-0.47-1.48-0.89-2.18-1.4c-0.84-0.62-1.72-1.2-2.6-1.77
			c-1.19-0.77-2.39-1.5-3.52-2.38c-0.94-0.73-2.07-1.2-2.98-2.01C196.43-2.18,196.2-2.29,195.96-2.33L195.96-2.33z M209.98-5.3
			c-0.01,0.6,0.13,1.14,0.28,1.66c0.18,0.63,0.1,1.25-0.06,1.82c-0.58,2.18-0.67,4.3,0.48,6.35c0.19,0.34,0.64,0.6,0.95,0.45
			c0.43-0.22,0.84-0.46,1.25-0.73c0.2-0.13,0.23-0.31,0.12-0.52c-0.44-0.87-0.7-1.83-0.75-2.81c-0.03-0.57,0.03-1.13,0.05-1.69
			c0.04-0.77-0.16-1.54-0.57-2.2c-0.43-0.67-0.96-1.28-1.32-2c-0.04-0.08-0.1-0.16-0.18-0.21C210.15-5.24,210.07-5.28,209.98-5.3
			L209.98-5.3z M205.23,42.52c0-0.05-0.01-0.1-0.03-0.15c-0.37-0.55-0.71-1.13-1.22-1.56c-0.2-0.17-0.45-0.07-0.54,0.16
			c-0.21,0.57-0.63,1.01-0.88,1.57c-0.39,0.9-0.82,1.79-1.31,2.64c-0.53,0.94-1.02,1.9-1.62,2.81c-0.72,1.08-1.37,2.2-2.04,3.32
			c-0.14,0.23-0.47,0.56-0.25,0.72c0.32,0.22,0.49-0.22,0.64-0.45c0.8-1.17,1.71-2.26,2.57-3.39c0.58-0.76,1.31-1.37,1.89-2.13
			c0.78-1.02,1.5-2.09,2.47-2.94C205.09,42.96,205.2,42.75,205.23,42.52z M252.21,56.55c-0.14-0.48-0.17-0.46-0.33-0.73
			c-0.74-1.22-1.98-1.96-2.88-3.03c-0.3-0.36-0.54-0.76-0.86-1.1c-1.14-1.26-2.3-2.5-3.34-3.85c-0.58-0.75-1.22-1.45-1.9-2.1
			c-0.62-0.58-1.19-1.2-1.73-1.86c-0.07-0.1-0.13-0.29-0.29-0.2c-0.13,0.07-0.09,0.24-0.06,0.37c0.12,0.47,0.42,0.84,0.74,1.17
			c1.06,1.08,2.2,2.09,3.16,3.27c0.89,1.08,1.82,2.13,2.79,3.14c0.83,0.86,1.51,1.87,2.46,2.63c0.48,0.39,0.88,0.87,1.21,1.39
			C251.44,56.04,251.77,56.26,252.21,56.55z M263.91,21.35c-1.02-0.08-2.01-0.09-3.01,0.16c-1.33,0.33-2.72,0.28-4.07,0.47
			c-1.44,0.2-2.85,0.54-4.3,0.63c-0.9,0.06-1.79,0.15-2.68,0.27c-0.22,0.03-0.45,0.03-0.63,0.24
			C254.18,23.11,259.05,22.3,263.91,21.35z M240.24,65.06c0.22-0.15,0.19-0.36,0.14-0.52c-0.28-1.04-0.57-2.07-1.1-3.03
			c-0.6-1.07-1.44-1.96-2.19-2.91c-0.79-0.99-1.26-2.06-1.6-3.24c-0.06-0.2-0.06-0.5-0.37-0.4c-0.27,0.08-0.2,0.34-0.15,0.56
			c0.02,0.08,0.06,0.16,0.07,0.24c0.41,1.82,1.62,3.15,2.75,4.53c0.89,1.1,1.8,2.19,2.1,3.65
			C239.96,64.31,240.02,64.72,240.24,65.06z M255.08,17.91c-0.13-0.17-0.31-0.1-0.48-0.06c-0.87,0.22-1.75,0.45-2.65,0.51
			c-0.75,0.05-1.51,0.1-2.22,0.33c-0.82,0.26-1.7,0.39-2.37,1c-0.23,0.21-0.6,0.5-0.4,0.76c0.2,0.26,0.58-0.04,0.84-0.21
			c1-0.72,2.18-1.01,3.37-1.15c1.22-0.15,2.36-0.57,3.53-0.89c0.08-0.01,0.16-0.04,0.22-0.09
			C254.99,18.05,255.04,17.99,255.08,17.91L255.08,17.91z M186.19,26.74c0.34,0.11,0.69,0.16,1.05,0.15
			c1.64,0.01,3.28-0.05,4.91,0.05c1.97,0.12,3.93,0.24,5.88-0.04c0.3-0.04,0.83,0.18,0.84-0.19c0.01-0.26-0.59-0.23-0.93-0.22
			c-1.42,0.05-2.83,0.2-4.25,0.18c-2.2-0.04-4.41-0.09-6.61-0.08C186.8,26.59,186.52,26.56,186.19,26.74z M255.49,40.71
			c-0.02-0.08-0.05-0.15-0.09-0.21c-0.05-0.06-0.11-0.11-0.17-0.15c-0.3-0.2-0.65-0.36-0.92-0.6c-0.79-0.71-1.57-1.45-2.33-2.19
			c-1.35-1.31-2.93-2.23-4.69-2.88c-0.18-0.07-0.39-0.13-0.47,0.11c-0.08,0.22,0.13,0.27,0.29,0.33c0.45,0.17,0.92,0.32,1.36,0.5
			c1.29,0.55,2.36,1.43,3.38,2.37c0.85,0.77,1.67,1.57,2.52,2.34c0.23,0.19,0.48,0.36,0.74,0.51
			C255.25,40.93,255.43,40.95,255.49,40.71z M223.2-11.05c-0.11,0.87-0.07,12.12,0.08,12.55c0.06-0.63,0.29-1.12,0.27-1.65
			c-0.06-1.41,0.13-2.82,0-4.24c-0.07-0.76,0.05-1.56-0.06-2.28c-0.19-1.24-0.06-2.46-0.15-3.68
			C223.31-10.57,223.37-10.79,223.2-11.05z M223.16,63.01c-0.08,0.65,0.06,1.2,0.09,1.74c0,0.08,0.01,0.18,0.12,0.19
			c0.11,0,0.14-0.09,0.15-0.17c0.02-0.15,0.03-0.3,0.01-0.45c-0.1-0.59-0.13-1.2-0.08-1.8c0.17-2.01,0.13-4.03,0.14-6.04
			c0.01-1.55-0.07-3.1,0.01-4.65c0-0.17-0.02-0.34-0.05-0.5c-0.01-0.08-0.01-0.18-0.12-0.19c-0.14-0.01-0.15,0.11-0.17,0.2
			c-0.01,0.08-0.02,0.17-0.01,0.25C223.2,55.44,223.32,59.28,223.16,63.01L223.16,63.01z M250.88,15.97
			c-0.94-0.1-1.83,0.15-2.71,0.39c-0.6,0.16-1.18,0.37-1.68,0.76c-0.2,0.16-0.43,0.36-0.23,0.63c0.17,0.23,0.39,0.04,0.58-0.06
			c1.33-0.76,2.75-1.19,4.29-1.21c0.55-0.01,1.11,0.04,1.64-0.13c0.17-0.06,0.49-0.02,0.44-0.3c-0.04-0.25-0.33-0.16-0.52-0.16
			C252.07,15.88,251.48,16.03,250.88,15.97L250.88,15.97z M251.34,38.77c0.5,0.65,0.89,1.33,1.49,1.89c1.19,1.1,2.49,1.89,4.11,2.12
			c0.76,0.12,1.49,0.34,2.19,0.64c0.27,0.11,0.52,0.29,0.92,0.27c-0.2-0.29-0.39-0.49-0.65-0.61c-0.53-0.25-1.08-0.44-1.66-0.56
			c-0.54-0.11-1.09-0.17-1.61-0.33c-1.02-0.3-1.9-0.88-2.7-1.58C252.72,40,252.03,39.38,251.34,38.77L251.34,38.77z M248.79,50.99
			c-0.37-0.7-0.91-1.26-1.41-1.86c-0.92-1.12-1.91-2.18-2.86-3.28c-0.7-0.8-1.28-1.71-2.07-2.43c-0.1-0.09-0.2-0.3-0.36-0.15
			c-0.13,0.13,0.01,0.28,0.1,0.39c0.88,1.07,1.74,2.15,2.63,3.21c0.73,0.86,1.51,1.7,2.26,2.54
			C247.61,49.98,248.06,50.62,248.79,50.99z M224.51,60.86c0.22-0.76,0.18-1.55,0.2-2.31c0.07-2.2,0.03-4.4,0.02-6.6
			c0-0.2,0.01-0.42-0.18-0.59C224.29,51.86,224.23,60.18,224.51,60.86z M236.75-6.31c-0.14,0.3-0.12,0.63-0.15,0.95
			c-0.1,1.1-0.3,2.18-0.77,3.19c-0.48,1.02-1.33,1.79-1.86,2.78c-0.41,0.78-1.02,1.45-1.16,2.36c-0.02,0.15-0.12,0.39,0.08,0.43
			c0.18,0.04,0.26-0.2,0.25-0.36c-0.02-0.44,0.22-0.76,0.44-1.09c0.38-0.57,0.78-1.12,1.12-1.7c0.4-0.67,0.76-1.36,1.18-2.02
			c0.85-1.36,1-2.84,0.99-4.37c0-0.02,0-0.04,0-0.06c0-0.02-0.01-0.04-0.02-0.05c-0.01-0.02-0.03-0.03-0.04-0.04
			C236.79-6.3,236.77-6.31,236.75-6.31L236.75-6.31z M256.97,31.2c0.81,0.35,7.18,1.24,7.62,1.08
			C263.84,31.71,257.61,30.8,256.97,31.2L256.97,31.2z M228.73,66.04c-0.1-2.99-0.42-5.97-0.97-8.91
			C227.58,60.16,228.15,63.1,228.73,66.04z M212.05,56.86c0.41-0.45,0.57-1,0.92-1.41c1.12-1.34,2.01-2.86,2.63-4.5
			c0.14-0.35,0.32-0.7,0.29-1.1c-0.01-0.12-0.03-0.24-0.18-0.25c-0.04,0-0.08,0.01-0.12,0.04c-0.03,0.03-0.05,0.07-0.06,0.11
			c-0.16,0.77-0.66,1.41-0.84,2.19c-0.21,0.93-0.7,1.73-1.34,2.42c-0.45,0.5-0.84,1.04-1.16,1.62
			C212.04,56.22,211.93,56.5,212.05,56.86z M225.54,53.48L225.54,53.48c0.01,0.3,0.01,0.6,0.01,0.9c0.01,0.48,0.01,0.96,0.03,1.45
			c0.01,0.13,0.04,0.3,0.21,0.3c0.17,0,0.13-0.16,0.14-0.28c0.04-0.43,0.05-0.86,0.12-1.29c0.14-0.98-0.01-2,0.35-2.95
			c0.05-0.13,0.19-0.31,0.01-0.4c-0.22-0.1-0.45-0.27-0.7-0.2c-0.2,0.05-0.16,0.27-0.17,0.43C225.54,52.11,225.54,52.8,225.54,53.48
			L225.54,53.48z M206,43.81c-1.01,0.74-6.25,6.85-6.42,7.53c0.53-0.82,1.37-1.35,1.96-2.12c1.02-1.32,2.15-2.54,3.29-3.76
			C205.28,45,205.87,44.6,206,43.81z M235.7,51.7c-0.04,0.03-0.07,0.07-0.09,0.12c-0.02,0.05-0.02,0.1,0,0.15
			c0.18,1.3,0.25,2.63,0.64,3.89c0.27,0.86,0.66,1.68,1.41,2.26c0.09,0.07,0.23,0.22,0.35,0.09c0.12-0.13-0.05-0.23-0.12-0.33
			c-0.64-0.87-1.17-1.79-1.32-2.88C236.4,53.87,235.9,52.84,235.7,51.7L235.7,51.7z M253.43,37.52c-0.2-0.5-0.37-0.8-0.67-1.06
			c-1.56-1.34-3.28-2.38-5.35-2.72c-0.14-0.02-0.35-0.08-0.4,0.08c-0.07,0.18,0.16,0.21,0.28,0.28c0.41,0.26,0.91,0.17,1.35,0.32
			c1.16,0.41,2.19,1.03,3.2,1.72C252.39,36.51,252.77,37.08,253.43,37.52z M237.87,2.95c1.5-2.05,2.18-4.42,3.29-6.58
			c-0.35,0.3-0.54,0.69-0.76,1.08c-0.39,0.68-0.52,1.47-1,2.1c-0.38,0.49-0.65,1.05-0.93,1.6c-0.1,0.23-0.24,0.44-0.42,0.61
			C237.66,2.07,237.63,2.44,237.87,2.95L237.87,2.95z M224.59,0.29c0.16-0.11,0.14-0.23,0.15-0.35c0.08-1.61-0.09-3.22-0.01-4.84
			c0.01-0.22-0.02-0.55-0.3-0.55c-0.22,0.01-0.22,0.34-0.26,0.54c-0.02,0.15-0.03,0.3-0.02,0.45c-0.05,1.24,0.22,2.45,0.23,3.69
			C224.37-0.4,224.44-0.04,224.59,0.29z M234.09,3.73c0.26-0.18,0.46-0.44,0.56-0.74c0.32-1.1,0.96-2.04,1.56-3
			c0.33-0.54,0.69-1.06,1.01-1.6c0.08-0.14,0.28-0.35,0.05-0.47c-0.2-0.11-0.25,0.16-0.32,0.29c-0.38,0.71-0.82,1.37-1.32,1.99
			C234.76,1.22,234.36,2.44,234.09,3.73z M201.35,37.19c-0.37,0-0.36,0-0.7,0.16c-1.28,0.61-2.61,1-4.04,0.97
			c-0.47-0.01-0.94,0.02-1.4,0.1c-0.71,0.12-1.85,0.71-2.1,1.1c0.07-0.01,0.13-0.02,0.2-0.04c0.1-0.03,0.19-0.07,0.27-0.12
			c0.91-0.62,1.96-0.77,3.01-0.73c1.33,0.05,2.53-0.37,3.74-0.79C200.72,37.71,201.07,37.48,201.35,37.19z M202.01,50.23
			c0.65-0.24,4.99-4.9,5.14-5.53c-0.54,0-0.79,0.41-1.04,0.76c-0.8,1.1-1.79,2.05-2.61,3.13C203.06,49.16,202.41,49.56,202.01,50.23
			z M211.61-5.35c-0.16-0.21-0.34-0.4-0.49-0.62c-0.92-1.36-1.75-2.76-1.87-4.45c-0.01-0.14-0.04-0.34-0.23-0.33
			c-0.17,0.01-0.13,0.2-0.14,0.33c-0.01,0.08-0.01,0.17,0,0.25C209.07-8.16,210.12-6.62,211.61-5.35z M206,9.02
			c-0.06-0.15-0.16-0.29-0.29-0.39c-1.13-0.91-2.19-1.91-3.18-2.98c-0.13-0.14-0.32-0.44-0.5-0.25c-0.16,0.16,0.09,0.39,0.25,0.53
			c1.1,0.92,2.01,2.04,3.04,3.04c0.12,0.12,0.23,0.25,0.41,0.27C205.88,9.25,206,9.22,206,9.02z M238.75,3.77
			c1.3-1.59,2.01-3.49,2.89-5.3C240.54,0.16,239.47,1.87,238.75,3.77z M195.14,15.29l-0.11,0.27c1.52,1.33,3.25,2.06,5.39,1.63
			C198.56,16.82,196.6,16.76,195.14,15.29z M194.37,40.1c0.55-0.12,0.97-0.4,1.44-0.38c1.47,0.08,2.89-0.17,4.28-0.63
			c0.62-0.21,1.16-0.54,1.73-0.97c-0.39,0.03-0.38,0.05-0.75,0.23c-1.11,0.53-2.23,0.96-3.49,0.97c-0.9,0.02-1.8,0.16-2.67,0.41
			C194.69,39.79,194.5,39.92,194.37,40.1z M212.01-4.93c-0.15,0.22-0.06,0.34,0.01,0.44c1.06,1.44,1.3,3.1,1.28,4.83
			c-0.02,0.39,0.06,0.77,0.24,1.12c0.06-0.3,0.29-0.57,0.17-0.87c-0.33-0.83-0.22-1.71-0.32-2.56
			C213.28-3.12,212.7-4.01,212.01-4.93z M237.73,53.1c-0.28-0.93-0.55-1.94-1.02-2.88c-0.13-0.26-0.21-0.75-0.56-0.62
			c-0.2,0.07,0.04,0.54,0.14,0.81c0.34,0.93,0.95,1.77,0.95,2.82c0,0.17,0.06,0.43,0.28,0.41C237.76,53.61,237.66,53.35,237.73,53.1
			z M245.45,45.23c-0.39-0.6-0.69-1.25-1.18-1.76c-0.46-0.48-0.7-1.14-1.21-1.58c-0.14-0.12-0.33-0.24-0.49-0.1
			c-0.2,0.19,0.03,0.33,0.13,0.45c0.68,0.82,1.37,1.64,2.07,2.44C244.95,44.9,245.12,45.15,245.45,45.23z M242.97,12
			c0.29-0.07,0.32-0.23,0.38-0.35c0.38-0.7,0.76-1.39,1.36-1.95c0.6-0.55,1-1.28,1.15-2.08C244.84,9.01,243.57,10.22,242.97,12z
			 M244.28,5.93c-0.63,1.06-1.57,1.76-2.24,2.7c-0.21,0.29-0.49,0.5-0.7,0.78c-0.1,0.13-0.15,0.28-0.02,0.41
			c0.15,0.16,0.27,0.01,0.38-0.09c0.04-0.03,0.07-0.08,0.1-0.11c0.93-0.96,1.56-2.15,2.41-3.17C244.28,6.35,244.4,6.21,244.28,5.93
			L244.28,5.93z M202.22,39.13c-1.72,0.69-3.52,1.18-5.36,1.47C198.01,40.94,201.58,39.97,202.22,39.13z M235.24,4.04
			c-0.01,0.13-0.06,0.24,0.06,0.29c0.12,0.05,0.19-0.05,0.23-0.14c0.1-0.17,0.17-0.36,0.23-0.55c0.15-0.68,0.45-1.28,0.8-1.87
			c0.29-0.48,0.58-0.97,0.87-1.45c0.04-0.07,0.1-0.16,0.01-0.22c-0.09-0.06-0.15,0-0.21,0.07c-0.65,0.77-1.18,1.64-1.57,2.58
			C235.49,3.18,235.37,3.63,235.24,4.04z M243.3,9.38c0.19-0.01,0.24-0.11,0.31-0.2c0.31-0.39,0.62-0.78,0.92-1.18
			c0.44-0.59,0.88-1.18,1.31-1.77c0.09-0.13,0.27-0.31,0.12-0.44c-0.2-0.16-0.33,0.1-0.42,0.22c-0.58,0.73-1.15,1.47-1.69,2.23
			C243.62,8.57,243.49,8.97,243.3,9.38L243.3,9.38z M253.05,30.29l-0.02-0.09c-0.26-0.03-0.53-0.07-0.79-0.1
			c-1.31-0.13-2.63-0.11-3.94-0.29c-0.35-0.05-0.74,0.08-1.03-0.26c-0.09-0.11-0.17,0-0.21,0.11c-0.09,0.28,0.09,0.48,0.38,0.47
			c0.6-0.02,1.23-0.1,1.82,0.01c0.98,0.19,1.96,0.04,2.94,0.15C252.49,30.31,252.77,30.31,253.05,30.29z M257.92,24.85
			c2.04,0.15,3.96-0.16,5.88-0.24C263.51,24.37,258.31,24.57,257.92,24.85L257.92,24.85z M214.39-2c-0.1,1.45,0.4,4.61,0.8,4.95
			C215.02,1.25,214.88-0.4,214.39-2z M250.72,17.4c-0.1-0.16-0.23-0.11-0.34-0.12c-1.53-0.11-2.81,0.38-3.81,1.57
			c-0.08,0.1-0.25,0.2-0.12,0.32c0.13,0.12,0.24-0.05,0.32-0.14c0.7-0.83,1.68-1.15,2.68-1.43C249.87,17.49,250.3,17.53,250.72,17.4
			z M193.54,28.17c0.46,0.02,0.81,0.16,1.18,0.09c0.59-0.09,1.2-0.1,1.79-0.01c0.53,0.07,1.07,0.06,1.6-0.02
			c0.1-0.02,0.27-0.01,0.27-0.16c0-0.18-0.18-0.16-0.31-0.17c-0.13-0.01-0.27-0.01-0.4,0c-1.16,0.03-2.32,0.07-3.49,0.1
			C193.96,28,193.73,28.06,193.54,28.17z M196.93,17.95c-0.01,0.05,0,0.1,0.03,0.14c0.02,0.04,0.06,0.08,0.11,0.1
			c0.63,0.31,1.27,0.59,1.97,0.68c0.23,0.02,0.47,0.02,0.7-0.02c0.17-0.02,0.33-0.11,0.34-0.31c0.01-0.23-0.18-0.26-0.35-0.26
			c-0.27-0.02-0.53-0.01-0.8,0.03c-0.55,0.11-1.05,0.08-1.53-0.25C197.27,17.98,197.12,17.86,196.93,17.95z M216.65-4.07
			c-0.21,0.23-0.14,0.4-0.14,0.55c0,1.04,0.38,2.03,0.34,3.07c-0.01,0.3,0.16,0.49,0.43,0.73C217.07-1.16,217-2.6,216.65-4.07z
			 M250.68,28.75c-0.9-0.16-1.75-0.37-2.64-0.2c-0.07,0.01-0.15,0.01-0.22-0.01c-0.07-0.02-0.14-0.06-0.19-0.11
			c-0.12-0.08-0.24-0.14-0.35,0c-0.06,0.06-0.09,0.14-0.11,0.22c-0.02,0.08-0.01,0.17,0.02,0.25c0.07,0.2,0.21,0.06,0.33,0.05
			c0.25-0.03,0.5-0.05,0.75-0.05C249.05,28.88,249.85,28.95,250.68,28.75z M193.05,42.82c-1.57,0.65-3.04,1.53-4.36,2.61
			C190.2,44.65,191.59,43.67,193.05,42.82z M212.15,54.22c-1.01,0.48-1.63,2.03-1.29,3.12C211,56.23,211.68,55.34,212.15,54.22z
			 M250.09,31.3c-0.07-0.04-0.15-0.06-0.23-0.06c-0.79,0.1-1.59,0.04-2.39,0.09c-0.17,0.01-0.33,0.07-0.46,0.17
			c-0.08,0.06-0.15,0.14-0.1,0.25c0.02,0.04,0.05,0.07,0.09,0.09c0.04,0.02,0.08,0.02,0.12,0.01
			C248.12,31.75,249.12,31.64,250.09,31.3z M229.52-8.26c-0.36,1.68-0.76,3.35-0.71,5.09C228.91-4.89,229.63-6.51,229.52-8.26z
			 M214.28,49.2c-0.2,0.1-0.19,0.25-0.18,0.37c0.06,0.59-0.12,1.11-0.4,1.62c-0.18,0.32-0.32,0.66-0.48,0.99
			c-0.1,0.21-0.18,0.42,0,0.76C213.87,51.72,214.51,50.61,214.28,49.2z M257.06,28.92c-1.67-0.18-3.34-0.29-5.01-0.13
			C253.72,28.94,255.39,29.06,257.06,28.92L257.06,28.92z M202.56,7.95c-0.01,0.04-0.01,0.08,0,0.12c0.01,0.04,0.04,0.07,0.07,0.09
			c0.43,0.32,0.68,0.76,0.93,1.21c0.2,0.33,0.46,0.61,0.76,0.85c0.12,0.1,0.27,0.19,0.4,0.07c0.17-0.14,0-0.26-0.08-0.38
			c-0.53-0.75-1.36-1.22-1.9-1.96c-0.01-0.01-0.02-0.02-0.04-0.03s-0.03-0.01-0.05-0.01c-0.02,0-0.04,0-0.05,0.01
			C202.59,7.93,202.57,7.94,202.56,7.95z M215.7,52.96l0.1,0.08c0.08-0.03,0.15-0.06,0.21-0.11c0.78-0.65,0.75-1.66,1.08-2.5
			c0-0.03-0.01-0.06-0.02-0.09c-0.01-0.03-0.03-0.05-0.06-0.07c-0.13-0.04-0.17,0.09-0.2,0.17c-0.13,0.41-0.22,0.83-0.45,1.2
			C216.11,52.06,215.92,52.52,215.7,52.96L215.7,52.96z M201.07,4.37c-1.01-1.37-2.25-2.51-3.5-3.66
			C198.68,1.99,199.9,3.16,201.07,4.37z M245.39,29.17c-0.56,0.92-0.74,2.16-0.43,3.04C245.21,31.15,245.38,30.17,245.39,29.17z
			 M201.92,9.34c0.35,0.69,0.64,1.38,1.35,1.75c0.08,0.04,0.19,0.13,0.27,0.06c0.12-0.11,0.02-0.22-0.05-0.3
			c-0.42-0.5-0.84-0.99-1.27-1.48C202.18,9.3,202.1,9.27,201.92,9.34z M199.86,16.06c0.17,0,0.34,0.01,0.5,0
			c0.13-0.01,0.36,0.03,0.34-0.17c-0.01-0.16-0.22-0.11-0.34-0.09c-1.13,0.22-2.14-0.15-3.14-0.59c-0.1-0.04-0.22-0.17-0.3-0.02
			c-0.06,0.13,0.09,0.19,0.19,0.25C197.97,15.91,198.91,16.01,199.86,16.06L199.86,16.06z M201.32,6.55
			c-0.4-0.85-1.05-1.47-1.82-1.99C199.9,5.39,200.53,6.08,201.32,6.55z M254.41,16.73l0.06,0.14c1.04-0.16,1.96-0.65,2.88-1.12
			c0.02-0.01,0.03-0.02,0.04-0.03c0.01-0.01,0.02-0.03,0.02-0.04c0.01-0.02,0.01-0.03,0.01-0.05c0-0.02-0.01-0.03-0.02-0.05
			c-0.08-0.1-0.18-0.06-0.27-0.01c-0.42,0.2-0.83,0.42-1.27,0.57C255.38,16.31,254.9,16.53,254.41,16.73z M199.07,51.89l-0.14-0.12
			c-0.69,0.93-1.67,1.61-2.28,2.61l0.18,0.16L199.07,51.89z"/>
		<path class="st3" d="M190.68,15.87c0.47,0.37,1.07,0.35,1.6,0.57c0.21,0.09,0.39,0.19,0.47,0.41c0.06,0.16,0.08,0.33-0.03,0.48
			c-0.12,0.15-0.28,0.07-0.42,0.04c-1.63-0.43-3.28-0.77-4.85-1.41c-0.03-0.02-0.06-0.03-0.09-0.03c-1.35,0.07-2.42-0.8-3.68-1.07
			c-0.38-0.07-0.73-0.27-0.98-0.57c-0.24-0.28-0.14-0.55,0.23-0.61c0.42-0.07,0.79,0.1,1.16,0.25c1.25,0.51,2.54,0.92,3.86,1.2
			c0.4,0.1,0.8,0.23,1.18,0.4C189.63,15.74,190.16,15.85,190.68,15.87L190.68,15.87z"/>
		<path class="st3" d="M190.21-1.16c0.43-0.01,0.7,0.15,0.89,0.38c0.75,0.93,1.78,1.54,2.61,2.38c0.52,0.52,1.01,1.07,1.49,1.61
			c0.12,0.14,0.22,0.31,0.07,0.49c-0.17,0.2-0.37,0.12-0.54-0.01c-1.71-1.27-3.39-2.58-4.72-4.26c-0.1-0.13-0.26-0.24-0.15-0.43
			c0.04-0.06,0.09-0.1,0.15-0.13C190.07-1.16,190.14-1.17,190.21-1.16z"/>
		<path class="st3" d="M260.27,19.89c-0.42-0.01-0.84-0.01-1.24,0.11c-0.25,0.08-0.48,0.07-0.57-0.23c-0.09-0.3,0.06-0.48,0.31-0.61
			c0.07-0.04,0.15-0.06,0.24-0.07c1.14-0.03,2.23-0.44,3.36-0.53c0.38-0.03,0.7-0.2,1.04-0.36c0.23-0.11,0.48-0.15,0.73-0.11
			c0.3,0.05,0.54,0.19,0.58,0.52c0.04,0.31-0.15,0.48-0.42,0.61c-0.44,0.21-0.91,0.34-1.39,0.37
			C262.02,19.68,261.16,19.93,260.27,19.89z"/>
		<path class="st3" d="M260.04,39.91c0.61-0.01,1.06,0.46,1.64,0.58c0.44,0.09,0.85,0.3,1.27,0.45c0.2,0.07,0.39,0.19,0.55,0.34
			c0.19,0.18,0.27,0.4,0.17,0.63c-0.12,0.27-0.36,0.34-0.63,0.29c-0.2-0.04-0.39-0.09-0.57-0.18c-0.85-0.38-1.7-0.77-2.55-1.15
			c-0.03-0.01-0.06-0.03-0.09-0.04c-0.25-0.14-0.54-0.29-0.46-0.63C259.45,39.86,259.78,39.91,260.04,39.91z"/>
		<path class="st3" d="M189.27-0.24c0.25,0.05,0.51,0.08,0.67,0.31c0.62,0.93,1.57,1.52,2.37,2.27c0.07,0.07,0.16,0.12,0.23,0.19
			c0.18,0.19,0.22,0.42,0.05,0.63c-0.17,0.21-0.4,0.2-0.63,0.06c-0.45-0.27-0.77-0.68-1.17-1c-0.56-0.45-1.1-0.92-1.64-1.39
			c-0.1-0.08-0.18-0.18-0.24-0.29c-0.05-0.11-0.08-0.24-0.08-0.36C188.84-0.08,188.98-0.25,189.27-0.24z"/>
		<path class="st3" d="M254.48,55.35c-0.16-0.88-0.86-1.31-1.5-1.79c-0.3-0.23-0.49-0.5-0.5-0.88c-0.01-0.32,0.13-0.48,0.47-0.34
			c0.11,0.04,0.22,0.09,0.31,0.16c0.78,0.6,1.49,1.28,2.11,2.03c0.09,0.12,0.14,0.27,0.14,0.43c0,0.15-0.06,0.3-0.16,0.42
			c-0.19,0.24-0.42,0.12-0.64,0.02C254.64,55.37,254.56,55.36,254.48,55.35L254.48,55.35z"/>
		<path class="st3" d="M186.07,6.25c0.08,0.02,0.27,0,0.37,0.09c0.59,0.57,1.38,0.79,2.03,1.25c0.27,0.19,0.66,0.39,0.44,0.77
			c-0.21,0.36-0.64,0.15-0.9,0.02c-0.82-0.4-1.53-1-2.35-1.42c-0.09-0.04-0.16-0.1-0.2-0.19c-0.04-0.09-0.04-0.18-0.01-0.27
			C185.54,6.25,185.79,6.26,186.07,6.25z"/>
		<path class="st3" d="M193.3,3.59c0.7,0.31,1.43,0.73,1.9,1.47c0.05,0.07,0.07,0.16,0.06,0.24c-0.01,0.08-0.05,0.16-0.12,0.22
			c-0.15,0.15-0.3,0.08-0.45-0.03c-0.55-0.42-1.05-0.92-1.66-1.27c-0.08-0.04-0.15-0.11-0.19-0.2c-0.04-0.09-0.04-0.18-0.01-0.27
			C192.9,3.58,193.05,3.56,193.3,3.59z"/>
		<path class="st3" d="M181.77,22.57c-0.28-0.08-0.68-0.07-0.7-0.47c-0.01-0.29,0.27-0.44,0.57-0.42c0.3,0.01,0.65,0.07,0.66,0.45
			C182.32,22.4,182.07,22.54,181.77,22.57z"/>
		<path class="st4" d="M239.32,22.11c0.78-0.25,0.9-0.4,0.9-1.22c0.02-0.52-0.21-0.88-0.61-1.23c-0.46-0.41-0.98-0.69-1.5-0.97
			c-0.27-0.14-0.53-0.29-0.79-0.45c-0.78-0.49-1.68-0.76-2.6-0.77c-0.13,0-0.27,0-0.4-0.01c-0.98-0.02-1.97-0.03-2.9,0.39
			c-0.18,0.08-0.37,0.15-0.56,0.21c-0.03,0.01-0.07,0.02-0.1,0.03c-0.05,0.02-0.1,0.02-0.15,0.01c-0.05-0.01-0.09-0.04-0.13-0.08
			c-0.01-0.02-0.02-0.03-0.03-0.05c-0.01-0.02-0.01-0.04-0.01-0.06c0-0.02,0.01-0.04,0.02-0.06c0.01-0.02,0.03-0.03,0.04-0.05
			c0.2-0.14,0.39-0.32,0.58-0.49c0.51-0.47,1.01-0.93,1.83-0.85c0.58,0.06,1.11,0,1.53-0.53c0.3-0.38,0.76-0.21,0.85,0.27
			c0.07,0.39,0.36,0.54,0.66,0.41c0.32-0.14,0.57-0.19,0.87,0.01c0.12,0.06,0.26,0.06,0.39,0.02c0.43-0.12,0.82-0.03,1.2,0.19
			c0.21,0.11,0.43,0.19,0.66,0.23c0.02,0,0.03,0.01,0.05,0.01c0.23,0.06,0.48,0.12,0.62-0.16c0.06-0.13,0.09-0.27,0.07-0.41
			c-0.02-0.14-0.09-0.27-0.19-0.38c-1.11-1.32-2.57-2.1-4.17-2.63c-0.53-0.18-1.1-0.33-1.67-0.28c-1.72,0.14-3.38,0.47-4.82,1.56
			c-1.28,0.96-2.34,2.05-2.89,3.59c-0.51,1.47-0.78,3-0.82,4.56c-0.04,1.48,0.07,2.95,0.18,4.42c0.01,0.16,0.02,0.32,0.04,0.48
			c0.05,0.69,0.12,1.39,1.06,1.58c0.41,0.08,0.66,0.48,0.62,0.98c-0.03,0.42-0.33,0.43-0.61,0.45c-0.05,0-0.11,0.01-0.15,0.01
			c-0.65,0.07-1.26,0.36-1.73,0.82c-0.4,0.38-0.88,0.51-1.47,0.27c-0.46-0.19-0.86-0.47-1.26-0.74c-0.42-0.29-0.85-0.58-1.33-0.76
			c-0.4-0.16-0.45-0.46-0.27-0.82c0.14-0.25,0.2-0.53,0.19-0.82c0-0.13-0.05-0.25-0.13-0.35c-0.08-0.1-0.19-0.17-0.32-0.19
			c-0.25-0.07-0.41,0.06-0.55,0.25c-0.3,0.42-0.52,0.89-0.65,1.39c-0.21,0.68-0.07,1.19,0.49,1.64c0.21,0.17,0.42,0.34,0.63,0.51
			c0.54,0.44,1.08,0.89,1.65,1.29c0.53,0.38,0.82,0.8,0.73,1.46c-0.01,0.13,0.01,0.27,0.07,0.39c0.14,0.41,0.44,0.49,0.77,0.22
			c0.26-0.22,0.36-0.5,0.38-0.84c0-0.06,0.01-0.12,0.04-0.17c0.02-0.05,0.06-0.1,0.1-0.14s0.1-0.07,0.15-0.09
			c0.06-0.02,0.12-0.03,0.18-0.02c0.28,0,0.29,0.22,0.3,0.42v0.01c0.01,0.17,0.06,0.33,0.14,0.48c0.01,0.03,0.03,0.06,0.04,0.09
			c0.1,0.2,0.2,0.41,0.48,0.35c0.3-0.07,0.48-0.29,0.53-0.6c0.01-0.04,0.01-0.09,0.01-0.14c0-0.04,0-0.08,0.01-0.11
			c0.07-0.5,0.24-0.87,0.84-0.95c0.54-0.07,1.04-0.32,1.32-0.82c0.22-0.4,0.55-0.59,0.95-0.75c0.69-0.29,1.24-0.76,1.33-1.56
			c0.08-0.79-0.22-1.4-0.87-1.9c-0.46-0.36-0.81-0.85-1-1.4c-0.18-0.49-0.14-0.97-0.09-1.45c0.02-0.24,0.05-0.49,0.04-0.73
			c-0.04-1.39,0.3-2.67,1.12-3.81c0.28-0.39,0.57-0.47,0.99-0.23c0.34,0.19,0.57,0.49,0.8,0.78c0.03,0.03,0.06,0.07,0.08,0.1
			c0.96,1.21,2.69,1.61,4.02,0.65c0.11-0.08,0.22-0.15,0.35-0.2c0.67-0.23,1-0.72,1.11-1.4c0.14-0.83,0.15-0.82,0.9-0.47
			c0.76,0.36,0.83,0.58,0.4,1.29c-0.11,0.18-0.2,0.37-0.06,0.56c0.15,0.22,0.38,0.17,0.59,0.11c0.16-0.05,0.33-0.11,0.49-0.16
			C239.01,22.21,239.16,22.16,239.32,22.11z M232.89,20.59c0.41,0,0.74-0.27,0.74-0.6c0-0.33-0.33-0.6-0.74-0.6
			c-0.41,0-0.74,0.27-0.74,0.6C232.15,20.32,232.48,20.59,232.89,20.59z"/>
		<path class="st4" d="M214.61,17.12c0.25,0.17,0.5,0.34,0.79,0.46c-0.29-0.11-0.58-0.11-0.88-0.11c-0.22,0-0.44,0-0.66-0.05
			c-0.53-0.11-1.07-0.08-1.59,0.07c-0.41,0.11-0.82,0.16-1.24,0.21c-0.32,0.04-0.65,0.08-0.97,0.15c-0.92,0.19-1.77,0.5-2.51,1.06
			c-1.1,0.82-1.1,1.43-0.05,2.3l0,0c0.02,0.02,0.05,0.04,0.07,0.06c0.45,0.32,0.7,0.24,0.78-0.31c0.08-0.55,0.46-0.79,0.93-0.93
			c0.39-0.11,0.57,0.05,0.52,0.46c-0.02,0.24-0.04,0.49,0.1,0.68c0.52,0.68,1.07,1.33,1.97,1.53c0.16,0.04,0.35,0.05,0.52,0.06
			c0.34,0.03,0.67,0.05,0.88,0.22c0.57,0.45,1.12,0.39,1.74,0.3c0.15-0.03,0.3-0.02,0.44,0.04c0.65,0.38,1.24,0.18,1.86-0.09
			c0.3-0.14,0.59-0.3,0.88-0.46c0.15-0.08,0.29-0.17,0.44-0.25c0.73-0.39,0.94-1.13,0.43-1.79c-0.17-0.22-0.33-0.46-0.49-0.7
			c-0.38-0.58-0.77-1.17-1.42-1.51c-0.1-0.05-0.22-0.14-0.12-0.27c0.07-0.1,0.19-0.05,0.27,0c0.09,0.05,0.19,0.1,0.29,0.15
			c0.6,0.31,1.2,0.62,1.61,1.2c0.04,0.06,0.08,0.12,0.12,0.18c0.17,0.25,0.34,0.51,0.58,0.64c0.42,0.22,0.51,0.51,0.5,0.92
			c-0.01,0.33,0.18,0.56,0.51,0.57c0.33,0.01,0.41-0.26,0.49-0.53c0.14-0.47,0.07-0.92,0.01-1.38c-0.05-0.35-0.1-0.69-0.06-1.04
			c0.01-0.1-0.08-0.22-0.15-0.31c-0.22-0.26-0.39-0.56-0.56-0.86c-0.08-0.14-0.16-0.28-0.24-0.41c-0.08-0.13-0.14-0.26-0.21-0.4
			c-0.11-0.24-0.23-0.49-0.43-0.68c-0.04-0.03-0.07-0.07-0.11-0.1c-0.64-0.63-1.27-1.24-2.11-1.65c-1.4-0.69-2.91-1.1-4.47-1.2
			c-1.95-0.12-3.7,0.55-5.41,1.39c-0.34,0.17-0.62,0.4-0.9,0.64c-0.32,0.26-0.63,0.52-1.02,0.68c-0.17,0.07-0.26,0.24-0.35,0.41
			c-0.02,0.05-0.05,0.09-0.08,0.14c-0.04,0.06-0.07,0.14-0.06,0.21c0.01,0.08,0.04,0.15,0.09,0.2c0.12,0.13,0.25,0.23,0.44,0.17
			c0.14-0.06,0.28-0.12,0.41-0.19c0.21-0.1,0.41-0.2,0.61-0.3c0.51-0.26,1.03-0.52,1.59-0.67c0.02-0.01,0.05-0.01,0.07-0.02
			c0.38-0.1,0.73-0.2,1.07-0.45c0.32-0.24,0.84-0.26,1.14-0.02c0.37,0.3,0.75,0.3,1.15,0.3c0.02,0,0.05,0,0.07,0h1.1
			c0.01,0,0.02,0,0.02,0c0.16,0,0.33,0,0.34,0.24c0.01,0.34,0.24,0.48,0.52,0.61C214.17,16.82,214.39,16.97,214.61,17.12z
			 M215.99,20.77c0.15-0.6,0.38-0.76,1.04-0.76c0.35,0,0.62,0.34,0.41,0.59c-0.09,0.11-0.18,0.22-0.26,0.33
			c-0.39,0.49-0.79,0.99-1.35,1.32c-0.12,0.07-0.3,0.17-0.42,0.05c-0.13-0.13-0.04-0.24,0.04-0.34c0.03-0.03,0.05-0.06,0.07-0.09
			C215.73,21.52,215.88,21.15,215.99,20.77z M212.41,20.42c0.42,0,0.76-0.27,0.76-0.61c0-0.34-0.34-0.61-0.76-0.61
			c-0.42,0-0.76,0.27-0.76,0.61C211.65,20.15,211.99,20.42,212.41,20.42z"/>
		<path class="st3" d="M225.87,42.52c-0.22,0.01-0.45-0.03-0.66-0.11c-0.59-0.23-1.16-0.51-1.82-0.54c-0.22-0.02-0.42-0.1-0.6-0.22
			c-1.12-0.73-2.4-1.2-3.72-1.35c-0.69-0.08-1.33-0.32-1.85-0.82c-0.12-0.12-0.26-0.22-0.41-0.28c-0.15-0.06-0.32-0.1-0.49-0.09
			c-0.43,0-0.64-0.27-0.62-0.68c0.03-0.57,0.16-1.13,0.4-1.64c0.21-0.44,0.66-0.48,0.96-0.11c0.01,0.01,0.02,0.03,0.03,0.04
			c0.26,0.25,0.14,0.79,0.59,0.87c0.55,0.11,1.1-0.05,1.64-0.15c0.54-0.1,1-0.36,1.47-0.63c0.39-0.22,0.83-0.33,1.2-0.61
			c0.1-0.07,0.22-0.12,0.35-0.14c0.12-0.02,0.25-0.02,0.38,0.01c0.66,0.13,1.29,0.27,2.01,0.09c1.06-0.26,1.99,0.22,2.83,0.85
			c0.51,0.38,1.07,0.67,1.73,0.73c0.63,0.06,1.04-0.19,1.37-0.71c0.37-0.59,0.54-0.58,0.99-0.03c0.06,0.08,0.13,0.15,0.19,0.23
			c0.62,0.83,0.3,1.72-0.71,1.84c-0.55,0.05-1.07,0.26-1.5,0.59c-0.47,0.37-1.13,0.28-1.62,0.63c-0.34,0.24-0.7,0.44-1.04,0.69
			c-0.29,0.21-0.21,0.58-0.28,0.88C226.57,42.3,226.35,42.57,225.87,42.52z M227.04,39.4c-0.11-0.06-0.23-0.09-0.35-0.1
			c-0.12-0.01-0.25,0-0.36,0.04c-1.07,0.29-2.15,0.2-3.22,0.02c-0.47-0.08-0.95-0.17-1.43-0.23c-0.16-0.02-0.4-0.05-0.43,0.15
			c-0.04,0.23,0.21,0.21,0.35,0.26c0.27,0.08,0.53,0.19,0.79,0.3c0.94,0.37,1.88,0.69,2.89,0.19c0.36-0.17,0.75-0.28,1.15-0.33
			C226.63,39.66,226.87,39.65,227.04,39.4L227.04,39.4z"/>
		<path class="st3" d="M223.53,42.8c1.14,0.06,2.06,0.13,2.93,0.52c0.28,0.11,0.53,0.28,0.74,0.5c0.46,0.52,0.42,1-0.12,1.47
			c-0.3,0.27-0.86,0.12-1.22-0.33c-0.1-0.11-0.18-0.24-0.22-0.39c-0.14-0.62-0.59-0.8-1.15-0.85c-0.68-0.08-1.38,0.01-2.01,0.27
			c-0.23,0.09-0.47,0.16-0.72,0.2c-0.23,0.04-0.49,0.07-0.59-0.22c-0.03-0.06-0.04-0.13-0.04-0.2c0-0.07,0.02-0.13,0.04-0.2
			c0.03-0.06,0.07-0.12,0.12-0.16c0.05-0.05,0.11-0.08,0.17-0.1c0.33-0.16,0.68-0.28,1.03-0.36
			C222.9,42.88,223.31,42.78,223.53,42.8z"/>
		<path class="st3" d="M244.09,27.12c-0.12,0.68-0.03,1.3,0,1.9c0.06,1.29-0.54,2.43-0.59,3.68c-0.01,0.25-0.12,0.55-0.42,0.53
			c-0.3-0.02-0.33-0.35-0.33-0.59c-0.01-0.27,0.02-0.53,0.11-0.79c0.31-0.76,0.4-1.58,0.61-2.37c0.17-0.64-0.12-1.29-0.05-1.94
			c0.03-0.3,0-0.6,0.01-0.9c0.01-0.17,0.06-0.36,0.26-0.38c0.2-0.03,0.28,0.16,0.32,0.32C244.05,26.79,244.07,26.99,244.09,27.12z"
			/>
		<path class="st3" d="M242.02,29.88c-0.23-1.62,0.18-3.22,0.21-4.83c0-0.16,0-0.4,0.18-0.43c0.22-0.04,0.19,0.22,0.24,0.36
			c0.23,0.62,0.08,1.25,0.12,1.88c0.06,0.9,0.02,1.8,0.06,2.7c0.02,0.48-0.12,0.92-0.22,1.38c-0.04,0.17-0.11,0.34-0.32,0.32
			c-0.21-0.02-0.25-0.2-0.26-0.37C242.01,30.55,242.02,30.22,242.02,29.88z"/>
		<path class="st3" d="M242.42,32.35c0.03,0.34-0.03,0.68-0.18,0.99c-0.35,0.77-0.67,1.56-0.99,2.34c-0.07,0.19-0.19,0.35-0.33,0.49
			c-0.16,0.15-0.33,0.33-0.56,0.18c-0.23-0.15-0.18-0.42-0.08-0.59c0.72-1.21,1.11-2.56,1.61-3.85c0.06-0.14,0.14-0.29,0.33-0.24
			c0.19,0.04,0.19,0.21,0.2,0.36C242.43,32.15,242.42,32.29,242.42,32.35z"/>
		<path class="st3" d="M241.12,31.79c-0.02,0.94-0.28,1.86-0.76,2.68c-0.17,0.28-0.4,0.41-0.71,0.26c-0.33-0.17-0.24-0.44-0.11-0.69
			c0.35-0.65,0.51-1.37,0.71-2.07c0.02-0.08,0.04-0.16,0.07-0.24c0.07-0.26,0.22-0.48,0.51-0.45
			C241.18,31.3,241.1,31.62,241.12,31.79z"/>
		<path class="st3" d="M231.78,45.52c-0.22,0-0.43,0.04-0.63,0.11c-0.28,0.1-0.5-0.05-0.61-0.29c-0.11-0.24,0.05-0.41,0.24-0.54
			c0.55-0.36,1.2-0.47,1.81-0.65c0.18-0.05,0.33,0.05,0.4,0.22c0.09,0.19-0.02,0.31-0.17,0.41
			C232.45,45.01,232.04,45.18,231.78,45.52L231.78,45.52z"/>
		<path class="st3" d="M236.25,40.71c-0.17,0-0.3-0.02-0.38-0.15c-0.09-0.15-0.04-0.29,0.05-0.42c0.24-0.34,0.52-0.65,0.84-0.91
			c0.21-0.17,0.4-0.35,0.57-0.56c0.03-0.04,0.06-0.07,0.1-0.09c0.04-0.02,0.08-0.04,0.13-0.04c0.05,0,0.09,0,0.14,0.02
			c0.04,0.01,0.09,0.04,0.12,0.07c0.15,0.11,0.22,0.29,0.11,0.44c-0.44,0.58-0.89,1.16-1.49,1.59
			C236.39,40.68,236.32,40.7,236.25,40.71z"/>
	</g>
</g>
</svg>
